<svg width="900" height="250" viewBox="0 0 900 250" fill="none" xmlns="http://www.w3.org/2000/svg">
<g filter="url(#filter0_d_5704_60)">
<path d="M1 51H875V216C875 220.418 871.418 224 867 224H8.99999C4.58171 224 1 220.418 1 216V51Z" fill="white" stroke="black"/>
<g filter="url(#filter1_d_5704_60)">
<path d="M1 10.9384C1 5.44957 5.44957 1 10.9384 1H865.062C870.55 1 875 5.44957 875 10.9384V50.9412H1V10.9384Z" fill="#D2D0F7"/>
<path d="M1 10.9384C1 5.44957 5.44957 1 10.9384 1H865.062C870.55 1 875 5.44957 875 10.9384V50.9412H1V10.9384Z" stroke="black"/>
</g>
<ellipse cx="32.514" cy="26.4699" rx="10.925" ry="10.6125" fill="#FF6A00" stroke="black"/>
<ellipse cx="63.104" cy="26.4699" rx="10.925" ry="10.6125" fill="#FFE603" stroke="black"/>
<ellipse cx="93.694" cy="26.4699" rx="10.925" ry="10.6125" fill="#04C800" stroke="black"/>
</g>
<path d="M42.4807 182.98L42.676 180.861C42.7801 180.874 42.9396 180.881 43.1545 180.881C43.3758 180.881 43.5581 180.855 43.7014 180.803C43.8446 180.744 43.9911 180.624 44.1408 180.441C44.2905 180.259 44.4077 179.992 44.4924 179.641C44.5835 179.289 44.6649 178.827 44.7365 178.254C44.8081 177.681 44.8602 176.965 44.8928 176.105C44.9253 175.246 44.9416 174.224 44.9416 173.039H52.881V183H50.1955V175.275H47.4025C47.4025 176.617 47.357 177.749 47.2658 178.674C47.1747 179.592 47.0445 180.344 46.8752 180.93C46.7059 181.516 46.4683 181.968 46.1623 182.287C45.8628 182.6 45.534 182.814 45.176 182.932C44.8179 183.042 44.3719 183.098 43.8381 183.098C43.3303 183.098 42.8778 183.059 42.4807 182.98ZM55.5471 183V173.039H58.1252V178.645L64.0139 173.039H65.0295V183H62.4514V177.404L56.5724 183H55.5471ZM67.1779 176.965V173.039H69.9416V176.145C69.9416 176.783 70.0881 177.235 70.381 177.502C70.6805 177.769 71.1135 177.902 71.6799 177.902C72.383 177.902 72.9885 177.788 73.4963 177.561V173.039H76.2599V183H73.4963V179.582C72.689 179.94 71.784 180.119 70.7814 180.119C70.3127 180.119 69.8667 180.057 69.4435 179.934C69.0204 179.803 68.6363 179.615 68.2912 179.367C67.9527 179.113 67.6825 178.781 67.4807 178.371C67.2788 177.961 67.1779 177.492 67.1779 176.965ZM78.926 183V173.039H81.6896V176.936H85.4299V173.039H88.1838V183H85.4299V179.104H81.6896V183H78.926ZM90.8596 183V173.039H93.6232V176.516C94.2482 176.346 94.8602 176.262 95.4592 176.262C96.7547 176.262 97.7704 176.568 98.506 177.18C99.2482 177.792 99.6193 178.586 99.6193 179.562C99.6193 180.611 99.2743 181.447 98.5842 182.072C97.9006 182.691 96.9338 183 95.6838 183H90.8596ZM93.6232 180.939H95.2248C95.8172 180.939 96.2502 180.812 96.5236 180.559C96.8036 180.298 96.9435 179.966 96.9435 179.562C96.9435 179.133 96.7808 178.811 96.4553 178.596C96.1297 178.374 95.6708 178.264 95.0783 178.264C94.5835 178.264 94.0985 178.329 93.6232 178.459V180.939ZM100.498 183V173.039H103.262V183H100.498ZM105.938 183V173.039H108.516V178.645L114.404 173.039H115.42V183H112.842V177.404L106.963 183H105.938ZM107.324 168.898H109.483C109.483 169.361 109.61 169.722 109.863 169.982C110.124 170.236 110.488 170.363 110.957 170.363C111.426 170.363 111.791 170.236 112.051 169.982C112.311 169.722 112.442 169.361 112.442 168.898H114.6C114.593 169.934 114.248 170.764 113.565 171.389C112.888 172.007 112.018 172.316 110.957 172.316C109.896 172.316 109.027 172.007 108.35 171.389C107.673 170.764 107.331 169.934 107.324 168.898ZM123.33 178.078C123.33 176.457 123.825 175.155 124.815 174.172C125.804 173.189 127.136 172.697 128.809 172.697C129.258 172.697 129.756 172.746 130.303 172.844C130.856 172.935 131.319 173.068 131.69 173.244V175.637C131.403 175.454 131.013 175.308 130.518 175.197C130.023 175.08 129.528 175.021 129.033 175.021C128.102 175.021 127.39 175.275 126.895 175.783C126.4 176.291 126.153 177.03 126.153 178C126.153 178.931 126.39 179.663 126.865 180.197C127.341 180.731 127.962 180.998 128.731 180.998C130 180.998 131.026 180.767 131.807 180.305V182.697C131.377 182.912 130.879 183.072 130.313 183.176C129.746 183.286 129.212 183.342 128.711 183.342C127.695 183.342 126.781 183.137 125.967 182.727C125.16 182.31 124.518 181.701 124.043 180.9C123.568 180.093 123.33 179.152 123.33 178.078ZM133.272 179.924C133.272 179.312 133.386 178.775 133.613 178.312C133.841 177.85 134.157 177.486 134.561 177.219C134.964 176.945 135.414 176.743 135.908 176.613C136.41 176.483 136.957 176.418 137.549 176.418C138.545 176.418 139.352 176.545 139.971 176.799V176.438C139.971 175.428 139.297 174.924 137.949 174.924C136.55 174.924 135.348 175.174 134.346 175.676V173.283C135.557 172.893 136.885 172.697 138.33 172.697C141.182 172.697 142.608 174.058 142.608 176.779V183H140.625L140.371 181.623C139.903 182.222 139.375 182.639 138.789 182.873C138.21 183.107 137.464 183.225 136.553 183.225C135.544 183.225 134.743 182.902 134.151 182.258C133.565 181.607 133.272 180.829 133.272 179.924ZM136.026 179.855C136.026 180.246 136.162 180.568 136.436 180.822C136.716 181.076 137.093 181.203 137.569 181.203C138.031 181.203 138.483 181.083 138.926 180.842C139.369 180.601 139.717 180.266 139.971 179.836V178.703C139.489 178.397 138.884 178.244 138.154 178.244C137.432 178.244 136.895 178.378 136.543 178.645C136.198 178.905 136.026 179.309 136.026 179.855ZM145.293 183V173.039H147.871V178.645L153.76 173.039H154.776V183H152.197V177.404L146.319 183H145.293ZM146.68 168.898H148.838C148.838 169.361 148.965 169.722 149.219 169.982C149.479 170.236 149.844 170.363 150.313 170.363C150.781 170.363 151.146 170.236 151.406 169.982C151.667 169.722 151.797 169.361 151.797 168.898H153.955C153.949 169.934 153.604 170.764 152.92 171.389C152.243 172.007 151.374 172.316 150.313 172.316C149.251 172.316 148.382 172.007 147.705 171.389C147.028 170.764 146.686 169.934 146.68 168.898ZM156.621 175.275V173.039H165.459V175.275H162.422V183H159.658V175.275H156.621ZM173.106 183V173.039C174.219 172.948 175.759 172.902 177.725 172.902C178.2 172.902 178.626 172.922 179.004 172.961C179.382 173 179.756 173.078 180.127 173.195C180.498 173.306 180.804 173.456 181.045 173.645C181.293 173.827 181.491 174.074 181.641 174.387C181.791 174.699 181.865 175.064 181.865 175.48C181.865 176.529 181.293 177.294 180.147 177.775C180.889 177.997 181.423 178.309 181.748 178.713C182.08 179.117 182.246 179.624 182.246 180.236C182.246 182.17 180.661 183.137 177.49 183.137C175.739 183.137 174.278 183.091 173.106 183ZM175.752 180.959H177.988C178.49 180.959 178.871 180.855 179.131 180.646C179.398 180.438 179.531 180.161 179.531 179.816C179.531 179.497 179.398 179.24 179.131 179.045C178.864 178.843 178.464 178.742 177.93 178.742H175.752V180.959ZM175.752 177.121H177.744C178.194 177.121 178.545 177.017 178.799 176.809C179.059 176.6 179.19 176.337 179.19 176.018C179.19 175.705 179.059 175.448 178.799 175.246C178.545 175.044 178.148 174.943 177.608 174.943H175.752V177.121ZM183.604 177.98C183.604 177.284 183.698 176.646 183.887 176.066C184.082 175.48 184.346 174.986 184.678 174.582C185.01 174.172 185.397 173.827 185.84 173.547C186.289 173.26 186.768 173.052 187.276 172.922C187.79 172.785 188.324 172.717 188.877 172.717C189.717 172.717 190.453 172.854 191.084 173.127C191.722 173.394 192.223 173.765 192.588 174.24C192.953 174.715 193.223 175.243 193.399 175.822C193.574 176.395 193.662 177.02 193.662 177.697C193.662 178.14 193.623 178.628 193.545 179.162H186.338C186.442 179.826 186.787 180.314 187.373 180.627C187.966 180.939 188.714 181.096 189.619 181.096C190.453 181.096 191.52 180.891 192.822 180.48V182.639C191.996 183.107 190.814 183.342 189.278 183.342C188.314 183.342 187.461 183.205 186.719 182.932C185.983 182.652 185.391 182.268 184.942 181.779C184.499 181.285 184.164 180.718 183.936 180.08C183.714 179.442 183.604 178.742 183.604 177.98ZM186.24 177.336H191.045C191.045 176.561 190.85 175.975 190.459 175.578C190.069 175.181 189.541 174.982 188.877 174.982C188.115 174.982 187.5 175.191 187.031 175.607C186.563 176.018 186.299 176.594 186.24 177.336ZM195.42 177.336C195.42 176.581 195.485 175.897 195.615 175.285C195.752 174.673 195.944 174.123 196.192 173.635C196.439 173.146 196.768 172.707 197.178 172.316C197.588 171.926 198.041 171.584 198.535 171.291C199.037 170.992 199.636 170.721 200.332 170.48C201.029 170.233 201.751 170.021 202.5 169.846C203.255 169.663 204.121 169.488 205.098 169.318V171.936C204.863 171.975 204.525 172.027 204.082 172.092C203.64 172.157 203.265 172.212 202.959 172.258C202.653 172.303 202.285 172.375 201.856 172.473C201.426 172.564 201.058 172.665 200.752 172.775C200.453 172.886 200.13 173.039 199.785 173.234C199.447 173.423 199.164 173.635 198.936 173.869C198.714 174.104 198.516 174.396 198.34 174.748C198.164 175.093 198.044 175.477 197.979 175.9C198.936 174.676 200.209 174.064 201.797 174.064C203.08 174.064 204.118 174.468 204.912 175.275C205.707 176.076 206.104 177.131 206.104 178.439C206.104 179.331 205.899 180.148 205.488 180.891C205.085 181.633 204.496 182.229 203.721 182.678C202.946 183.12 202.067 183.342 201.084 183.342C200.14 183.342 199.304 183.192 198.574 182.893C197.845 182.587 197.253 182.163 196.797 181.623C196.341 181.083 195.996 180.451 195.762 179.729C195.534 179.006 195.42 178.208 195.42 177.336ZM198.164 177.922C198.164 178.872 198.408 179.618 198.897 180.158C199.391 180.692 200.046 180.959 200.86 180.959C201.576 180.959 202.178 180.744 202.666 180.314C203.154 179.878 203.399 179.335 203.399 178.684C203.399 177.993 203.177 177.44 202.735 177.023C202.292 176.607 201.725 176.398 201.035 176.398C200.482 176.398 199.938 176.542 199.404 176.828C198.871 177.115 198.457 177.479 198.164 177.922ZM214.024 186.799V173.039H216.406L216.524 174.602C217.253 173.332 218.392 172.697 219.942 172.697C220.716 172.697 221.403 172.831 222.002 173.098C222.608 173.365 223.096 173.732 223.467 174.201C223.845 174.67 224.128 175.21 224.317 175.822C224.512 176.434 224.61 177.102 224.61 177.824C224.61 178.56 224.499 179.26 224.278 179.924C224.056 180.581 223.74 181.167 223.33 181.682C222.927 182.189 222.409 182.593 221.778 182.893C221.146 183.192 220.443 183.342 219.668 183.342C218.483 183.342 217.523 182.928 216.787 182.102V186.799H214.024ZM216.768 180.158C217.445 180.718 218.291 180.998 219.307 180.998C219.73 180.992 220.104 180.907 220.43 180.744C220.755 180.575 221.016 180.347 221.211 180.061C221.406 179.774 221.55 179.449 221.641 179.084C221.738 178.713 221.787 178.312 221.787 177.883C221.787 177.01 221.579 176.314 221.162 175.793C220.752 175.266 220.134 175.002 219.307 175.002C218.838 175.002 218.369 175.09 217.901 175.266C217.432 175.435 217.054 175.653 216.768 175.92V180.158ZM226.006 179.924C226.006 179.312 226.12 178.775 226.348 178.312C226.576 177.85 226.891 177.486 227.295 177.219C227.699 176.945 228.148 176.743 228.643 176.613C229.144 176.483 229.691 176.418 230.283 176.418C231.279 176.418 232.087 176.545 232.705 176.799V176.438C232.705 175.428 232.031 174.924 230.684 174.924C229.284 174.924 228.083 175.174 227.08 175.676V173.283C228.291 172.893 229.619 172.697 231.065 172.697C233.916 172.697 235.342 174.058 235.342 176.779V183H233.36L233.106 181.623C232.637 182.222 232.11 182.639 231.524 182.873C230.944 183.107 230.199 183.225 229.287 183.225C228.278 183.225 227.477 182.902 226.885 182.258C226.299 181.607 226.006 180.829 226.006 179.924ZM228.76 179.855C228.76 180.246 228.897 180.568 229.17 180.822C229.45 181.076 229.828 181.203 230.303 181.203C230.765 181.203 231.218 181.083 231.66 180.842C232.103 180.601 232.451 180.266 232.705 179.836V178.703C232.223 178.397 231.618 178.244 230.889 178.244C230.166 178.244 229.629 178.378 229.278 178.645C228.932 178.905 228.76 179.309 228.76 179.855ZM237.598 182.717V180.363C238.659 180.852 239.785 181.096 240.977 181.096C242.442 181.096 243.174 180.731 243.174 180.002C243.174 179.292 242.621 178.938 241.514 178.938H238.77V177.023H241.494C242.412 177.023 242.871 176.669 242.871 175.959C242.871 175.282 242.233 174.943 240.957 174.943C240.462 174.943 239.88 175.002 239.209 175.119C238.545 175.236 238.034 175.357 237.676 175.48V173.244C238.021 173.081 238.617 172.951 239.463 172.854C240.309 172.749 241.052 172.697 241.69 172.697C242.914 172.697 243.88 172.935 244.59 173.41C245.3 173.879 245.654 174.562 245.654 175.461C245.654 176.034 245.495 176.532 245.176 176.955C244.857 177.372 244.418 177.661 243.858 177.824C244.502 177.948 245.003 178.225 245.362 178.654C245.72 179.077 245.899 179.605 245.899 180.236C245.899 180.673 245.82 181.07 245.664 181.428C245.508 181.779 245.296 182.072 245.029 182.307C244.763 182.541 244.444 182.74 244.072 182.902C243.701 183.059 243.311 183.169 242.901 183.234C242.49 183.306 242.054 183.342 241.592 183.342C240.915 183.342 240.173 183.286 239.365 183.176C238.565 183.065 237.975 182.912 237.598 182.717ZM247.988 186.799V173.039H250.371L250.488 174.602C251.218 173.332 252.357 172.697 253.906 172.697C254.681 172.697 255.368 172.831 255.967 173.098C256.572 173.365 257.061 173.732 257.432 174.201C257.809 174.67 258.093 175.21 258.281 175.822C258.477 176.434 258.574 177.102 258.574 177.824C258.574 178.56 258.464 179.26 258.242 179.924C258.021 180.581 257.705 181.167 257.295 181.682C256.891 182.189 256.374 182.593 255.742 182.893C255.111 183.192 254.408 183.342 253.633 183.342C252.448 183.342 251.488 182.928 250.752 182.102V186.799H247.988ZM250.733 180.158C251.41 180.718 252.256 180.998 253.272 180.998C253.695 180.992 254.069 180.907 254.395 180.744C254.72 180.575 254.981 180.347 255.176 180.061C255.371 179.774 255.515 179.449 255.606 179.084C255.703 178.713 255.752 178.312 255.752 177.883C255.752 177.01 255.544 176.314 255.127 175.793C254.717 175.266 254.098 175.002 253.272 175.002C252.803 175.002 252.334 175.09 251.865 175.266C251.397 175.435 251.019 175.653 250.733 175.92V180.158ZM259.971 179.924C259.971 179.312 260.085 178.775 260.313 178.312C260.541 177.85 260.856 177.486 261.26 177.219C261.664 176.945 262.113 176.743 262.608 176.613C263.109 176.483 263.656 176.418 264.248 176.418C265.244 176.418 266.052 176.545 266.67 176.799V176.438C266.67 175.428 265.996 174.924 264.649 174.924C263.249 174.924 262.048 175.174 261.045 175.676V173.283C262.256 172.893 263.584 172.697 265.029 172.697C267.881 172.697 269.307 174.058 269.307 176.779V183H267.324L267.07 181.623C266.602 182.222 266.074 182.639 265.488 182.873C264.909 183.107 264.164 183.225 263.252 183.225C262.243 183.225 261.442 182.902 260.85 182.258C260.264 181.607 259.971 180.829 259.971 179.924ZM262.725 179.855C262.725 180.246 262.862 180.568 263.135 180.822C263.415 181.076 263.793 181.203 264.268 181.203C264.73 181.203 265.182 181.083 265.625 180.842C266.068 180.601 266.416 180.266 266.67 179.836V178.703C266.188 178.397 265.583 178.244 264.854 178.244C264.131 178.244 263.594 178.378 263.242 178.645C262.897 178.905 262.725 179.309 262.725 179.855ZM271.475 177.336C271.475 176.581 271.54 175.897 271.67 175.285C271.807 174.673 271.999 174.123 272.246 173.635C272.494 173.146 272.822 172.707 273.233 172.316C273.643 171.926 274.095 171.584 274.59 171.291C275.091 170.992 275.69 170.721 276.387 170.48C277.084 170.233 277.806 170.021 278.555 169.846C279.31 169.663 280.176 169.488 281.153 169.318V171.936C280.918 171.975 280.58 172.027 280.137 172.092C279.694 172.157 279.32 172.212 279.014 172.258C278.708 172.303 278.34 172.375 277.91 172.473C277.481 172.564 277.113 172.665 276.807 172.775C276.507 172.886 276.185 173.039 275.84 173.234C275.501 173.423 275.218 173.635 274.99 173.869C274.769 174.104 274.57 174.396 274.395 174.748C274.219 175.093 274.098 175.477 274.033 175.9C274.99 174.676 276.263 174.064 277.852 174.064C279.134 174.064 280.173 174.468 280.967 175.275C281.761 176.076 282.158 177.131 282.158 178.439C282.158 179.331 281.953 180.148 281.543 180.891C281.14 181.633 280.55 182.229 279.776 182.678C279.001 183.12 278.122 183.342 277.139 183.342C276.195 183.342 275.358 183.192 274.629 182.893C273.9 182.587 273.307 182.163 272.852 181.623C272.396 181.083 272.051 180.451 271.817 179.729C271.589 179.006 271.475 178.208 271.475 177.336ZM274.219 177.922C274.219 178.872 274.463 179.618 274.951 180.158C275.446 180.692 276.1 180.959 276.914 180.959C277.63 180.959 278.233 180.744 278.721 180.314C279.209 179.878 279.453 179.335 279.453 178.684C279.453 177.993 279.232 177.44 278.789 177.023C278.347 176.607 277.78 176.398 277.09 176.398C276.537 176.398 275.993 176.542 275.459 176.828C274.925 177.115 274.512 177.479 274.219 177.922ZM283.506 178.078C283.506 177.316 283.63 176.607 283.877 175.949C284.125 175.292 284.476 174.722 284.932 174.24C285.394 173.758 285.967 173.381 286.651 173.107C287.334 172.834 288.093 172.697 288.926 172.697C289.818 172.697 290.615 172.844 291.319 173.137C292.028 173.423 292.598 173.814 293.028 174.309C293.464 174.797 293.796 175.354 294.024 175.979C294.251 176.597 294.365 177.258 294.365 177.961C294.365 178.977 294.151 179.891 293.721 180.705C293.298 181.512 292.669 182.154 291.836 182.629C291.009 183.104 290.039 183.342 288.926 183.342C288.041 183.335 287.246 183.189 286.543 182.902C285.847 182.609 285.28 182.219 284.844 181.73C284.408 181.242 284.076 180.689 283.848 180.07C283.62 179.445 283.506 178.781 283.506 178.078ZM286.348 177.922C286.348 178.339 286.397 178.732 286.494 179.104C286.592 179.468 286.742 179.8 286.944 180.1C287.145 180.393 287.416 180.627 287.754 180.803C288.093 180.972 288.483 181.057 288.926 181.057C289.401 181.057 289.815 180.972 290.166 180.803C290.518 180.627 290.788 180.393 290.977 180.1C291.172 179.8 291.315 179.484 291.406 179.152C291.498 178.82 291.543 178.469 291.543 178.098C291.543 177.538 291.455 177.03 291.279 176.574C291.11 176.118 290.824 175.741 290.42 175.441C290.016 175.135 289.518 174.982 288.926 174.982C288.548 174.982 288.207 175.041 287.901 175.158C287.601 175.275 287.357 175.428 287.168 175.617C286.979 175.806 286.82 176.031 286.69 176.291C286.566 176.551 286.478 176.815 286.426 177.082C286.374 177.349 286.348 177.629 286.348 177.922ZM295 175.275V173.039H303.838V175.275H300.801V183H298.037V175.275H295ZM305.147 176.965V173.039H307.91V176.145C307.91 176.783 308.057 177.235 308.35 177.502C308.649 177.769 309.082 177.902 309.649 177.902C310.352 177.902 310.957 177.788 311.465 177.561V173.039H314.229V183H311.465V179.582C310.658 179.94 309.753 180.119 308.75 180.119C308.281 180.119 307.835 180.057 307.412 179.934C306.989 179.803 306.605 179.615 306.26 179.367C305.921 179.113 305.651 178.781 305.449 178.371C305.248 177.961 305.147 177.492 305.147 176.965ZM316.895 183V173.039H319.473V178.645L325.362 173.039H326.377V183H323.799V177.404L317.92 183H316.895ZM329.063 183V173.039H331.826V176.984H332.705L335.488 173.039H338.789L335.069 177.863L339.141 183H335.742L332.783 179.035H331.826V183H329.063ZM339.756 179.924C339.756 179.312 339.87 178.775 340.098 178.312C340.326 177.85 340.641 177.486 341.045 177.219C341.449 176.945 341.898 176.743 342.393 176.613C342.894 176.483 343.441 176.418 344.033 176.418C345.029 176.418 345.837 176.545 346.455 176.799V176.438C346.455 175.428 345.781 174.924 344.434 174.924C343.034 174.924 341.833 175.174 340.83 175.676V173.283C342.041 172.893 343.369 172.697 344.815 172.697C347.666 172.697 349.092 174.058 349.092 176.779V183H347.11L346.856 181.623C346.387 182.222 345.86 182.639 345.274 182.873C344.694 183.107 343.949 183.225 343.037 183.225C342.028 183.225 341.227 182.902 340.635 182.258C340.049 181.607 339.756 180.829 339.756 179.924ZM342.51 179.855C342.51 180.246 342.647 180.568 342.92 180.822C343.2 181.076 343.578 181.203 344.053 181.203C344.515 181.203 344.968 181.083 345.41 180.842C345.853 180.601 346.201 180.266 346.455 179.836V178.703C345.973 178.397 345.368 178.244 344.639 178.244C343.916 178.244 343.379 178.378 343.028 178.645C342.682 178.905 342.51 179.309 342.51 179.855Z" fill="#2B2D35"/>
<defs>
<filter id="filter0_d_5704_60" x="0.5" y="0.5" width="875" height="228" filterUnits="userSpaceOnUse" color-interpolation-filters="sRGB">
<feFlood flood-opacity="0" result="BackgroundImageFix"/>
<feColorMatrix in="SourceAlpha" type="matrix" values="0 0 0 0 0 0 0 0 0 0 0 0 0 0 0 0 0 0 127 0" result="hardAlpha"/>
<feOffset dy="4"/>
<feComposite in2="hardAlpha" operator="out"/>
<feColorMatrix type="matrix" values="0 0 0 0 0 0 0 0 0 0 0 0 0 0 0 0 0 0 1 0"/>
<feBlend mode="normal" in2="BackgroundImageFix" result="effect1_dropShadow_5704_60"/>
<feBlend mode="normal" in="SourceGraphic" in2="effect1_dropShadow_5704_60" result="shape"/>
</filter>
<filter id="filter1_d_5704_60" x="0.5" y="0.5" width="875" height="52.9412" filterUnits="userSpaceOnUse" color-interpolation-filters="sRGB">
<feFlood flood-opacity="0" result="BackgroundImageFix"/>
<feColorMatrix in="SourceAlpha" type="matrix" values="0 0 0 0 0 0 0 0 0 0 0 0 0 0 0 0 0 0 127 0" result="hardAlpha"/>
<feOffset dy="2"/>
<feComposite in2="hardAlpha" operator="out"/>
<feColorMatrix type="matrix" values="0 0 0 0 0 0 0 0 0 0 0 0 0 0 0 0 0 0 1 0"/>
<feBlend mode="normal" in2="BackgroundImageFix" result="effect1_dropShadow_5704_60"/>
<feBlend mode="normal" in="SourceGraphic" in2="effect1_dropShadow_5704_60" result="shape"/>
</filter>
</defs>
</svg>
