<svg width="1296" height="650" viewBox="0 0 1440 750" fill="none" xmlns="http://www.w3.org/2000/svg">
<rect width="1440" height="750" fill="#792AFF"/>
<path opacity="0.7" d="M650.794 200.749C650.67 199.869 649.912 198.647 648.985 198.441C648.929 198.327 648.884 198.212 648.816 198.098C647.018 194.933 642.902 194.556 639.714 195.367C636.435 196.201 633.303 198.704 633.021 202.303C632.761 205.583 634.988 209.274 637.724 210.977C640.958 212.977 645.537 211.822 648.25 209.434C651.077 206.943 651.292 204.303 650.783 200.761L650.794 200.749Z" fill="#A079FF"/>
<g opacity="0.7">
<path d="M431.25 134.168C430.318 132.812 432.206 131.27 433.416 132.38C441.639 139.956 457.877 155.786 462.139 160.703C468.458 167.993 484.496 187.923 493.729 197.641C502.962 207.359 541.28 249.03 541.28 249.03L528.725 258.879C528.725 258.879 486.924 204.932 480.119 197.641C474.007 191.09 447.064 157.296 431.25 134.168Z" fill="#515092"/>
<path d="M541.973 245.847C540.331 244.028 537.488 243.419 534.659 243.55C534.12 242.887 532.54 243.003 531.885 243.095C527.037 243.774 522.937 246.956 522.483 252.051C522.066 256.69 524.71 260.99 529.234 262.331C533.657 263.642 539.622 262.046 542.512 258.339C545.025 255.11 544.724 248.906 541.973 245.854V245.847Z" fill="#BAA4FF"/>
</g>
<g opacity="0.7">
<path d="M514.137 605.24C515.918 603.182 520.603 598.836 526.013 593.988C529.304 591.036 534.067 595.298 531.501 598.897C515.424 621.393 493.838 651.311 489.391 656.074L480.027 666.108L470.663 656.074C483.372 642.695 505.444 615.274 514.137 605.24Z" fill="#515092"/>
<path d="M478.316 670.439C476.675 671.279 474.509 670.94 472.552 670.085C471.997 670.401 470.918 669.9 470.479 669.653C467.25 667.873 465.23 664.528 466.279 660.829C467.234 657.453 470.247 655.141 473.793 655.419C477.261 655.689 481.022 658.424 482.054 661.808C482.956 664.752 481.068 669.037 478.316 670.439Z" fill="#BAA4FF"/>
</g>
<path d="M277.847 540.941C277.847 540.941 306.203 559.508 303.523 596.261C300.844 633.013 285.323 642.144 285.323 642.144C285.323 642.144 281.753 653.365 267.986 661.059C254.22 668.753 236.56 669.634 232.023 671.483C227.487 673.332 200.912 675.733 181.991 663.487C163.082 651.241 143.397 619.365 142.474 601.903C141.552 584.441 149.375 567.627 154.227 561.452C159.078 555.288 165.151 539.707 169.412 534.298C174.263 528.134 199.759 510.418 223.52 516.499C247.281 522.58 251.66 522.9 260.259 525.696C268.859 528.492 277.849 540.92 277.849 540.92L277.847 540.941Z" fill="#5D13D1"/>
<path d="M224.041 672.8C227.928 672.522 230.785 671.985 232.013 671.481C233.915 670.714 238.121 670.103 243.371 669.094C242.587 668.173 241.663 667.351 240.697 666.676C240.527 666.459 240.358 666.23 240.211 666.004C240.191 665.97 240.131 665.901 240.071 665.821C240.032 665.764 239.992 665.707 239.953 665.64L239.973 665.663C239.894 665.56 239.838 665.426 239.759 665.313C239.479 664.807 239.21 664.301 238.964 663.776C238.501 662.793 237.56 661.904 236.747 661.23C236.129 660.721 235.422 660.227 234.678 659.795C233.097 657.651 231.362 655.539 229.571 653.434C220.843 643.107 210.943 633.882 200.065 625.784C198.314 624.48 196.527 623.216 194.728 621.974C194.75 621.231 193.93 620.189 193.362 619.587C192.246 618.415 191.094 617.285 189.919 616.174C189.979 616.103 190.06 616.044 190.11 615.95C190.783 614.521 187.354 612.102 186.583 611.593C185.645 610.985 184.681 610.418 183.73 609.831C183.144 609.033 182.259 608.288 181.889 607.97C181.816 607.911 181.733 607.851 181.662 607.781C181.943 607.078 181.375 606.174 180.572 605.36C181.523 604.749 180.405 603.157 179.589 602.364C177.753 600.579 175.94 598.774 174.14 596.949C174.477 596.218 173.554 594.942 172.861 594.265C170.228 591.732 167.699 589.109 165.253 586.405C165.184 586.303 165.115 586.201 165.025 586.087C163.688 584.5 162.34 582.913 161.003 581.326C161.252 580.912 161.082 580.242 160.529 579.446C157.492 575.103 154.187 570.998 150.675 567.03C146.317 575.119 141.74 588.306 142.464 601.901C142.541 603.396 142.805 605.012 143.141 606.699C159.246 610.517 174.589 616.707 188.433 625.928C201.496 634.618 229.359 654.843 224.031 672.799L224.041 672.8Z" fill="#240057"/>
<path d="M215.962 635.446C223.123 632.515 224.863 623.934 222.622 617.21C221.878 614.986 220.759 612.952 219.39 611.061C219.792 611.241 220.249 611.415 220.688 611.533C221.654 612.067 222.617 612.634 223.596 613.148C224.595 613.674 227.319 615.113 228.029 613.611C228.712 612.183 225.273 609.763 224.502 609.254C221.24 607.106 217.972 604.893 214.787 602.578C216.145 603.432 217.538 604.246 218.96 604.975C219.476 605.24 221.288 606.149 222.122 605.789C222.324 605.868 222.503 605.968 222.705 606.036C223.46 606.318 225.615 607.025 225.27 605.468C224.982 604.174 223.337 602.91 222.079 602.192C222.286 602.045 222.402 601.806 222.303 601.367C222.136 600.653 221.576 599.954 220.888 599.354C220.803 599.013 220.589 598.652 220.309 598.308C220.571 598.457 220.822 598.604 221.084 598.753C221.735 599.124 224.594 600.498 224.688 598.908C224.707 598.65 224.627 598.396 224.504 598.139C218.733 594.146 213.568 589.335 208.737 584.289C207.326 582.815 205.998 581.262 204.575 579.798C203.398 578.72 202.23 577.653 201.076 576.554C200.581 576.313 200.081 576.125 199.566 575.991C199.084 575.869 198.236 575.667 197.894 576.16C197.564 576.643 198.075 577.414 198.345 577.758C199.374 579.074 200.404 580.379 201.433 581.695C201.623 581.935 201.868 582.169 202.092 582.401C201.785 582.713 201.938 583.318 202.387 584.041C202.807 584.72 203.286 585.348 203.74 586.007C203.559 585.951 203.39 585.863 203.208 585.817C202.961 585.756 202.607 585.676 202.278 585.685C201.762 585.431 201.241 585.231 200.705 585.095C199.085 584.696 198.556 585.51 199.483 586.873C199.532 586.952 199.592 587.021 199.652 587.101C199.607 587.562 199.984 588.096 200.19 588.413C201.81 590.906 203.705 593.234 205.81 595.373C198.952 589.208 193.193 582.055 189.982 573.069C186.76 564.072 187.238 553.478 191.733 545.151C192.811 543.708 193.972 542.315 195.331 541.043C200.913 535.796 208.035 532.646 215.523 531.207C215.981 531.52 216.434 531.748 216.742 531.727C235.432 530.198 252.781 537.635 265.091 550.672C264.372 550.188 263.654 549.704 262.855 549.279C262.466 549.067 262.189 548.972 261.953 548.911C265.838 551.655 269.012 555.458 271.429 559.465C273.027 562.117 274.319 565.071 275.09 568.127C275.183 568.35 275.275 568.583 275.369 568.795C277.112 573.055 278.529 576.989 277.471 581.606C276.559 585.575 275.2 589.685 273.225 593.263C269.27 600.464 262.927 603.422 255.9 603.914C255.838 603.866 255.788 603.808 255.726 603.761C255.576 603.566 255.415 603.382 255.303 603.266C255.325 603.267 255.336 603.268 255.358 603.27C256.044 603.287 255.86 602.821 255.637 602.438C255.766 602.307 255.895 602.187 256.025 602.056C256.096 601.985 256.103 601.889 256.099 601.791C256.156 601.752 256.202 601.723 256.27 601.685C256.52 601.552 256.505 601.314 256.351 601.033C257.888 600.929 259.438 600.783 260.998 600.508C261.817 600.363 260.43 599.021 260.253 598.889C259.626 598.358 258.606 597.669 257.72 597.831C253.295 598.598 248.971 598.585 244.755 597.986L242.384 597.241C243.547 597.477 244.722 597.692 245.9 597.854C246.819 597.985 247.386 597.854 247.712 597.576C262.826 596.563 265.575 577.588 258.61 564.498C252.366 552.766 239.499 542.58 225.855 539.762C231.138 539.812 236.68 541.252 241.034 542.8C251.072 546.391 259.923 553.09 264.479 562.811C266.917 568.017 267.985 573.749 267.318 579.452C267.255 580.009 269.116 581.008 269.188 580.463C271.939 556.815 247.306 539.47 225.593 538.415C223.372 538.307 221.087 538.486 218.92 539.008C218.341 538.998 217.753 538.977 217.173 538.999C209.997 539.296 200.975 542.286 197.37 549.037C193.486 556.318 197.756 565.014 201.981 571.192C204.862 575.416 208.354 579.2 212.238 582.558L212.206 582.556C211.811 582.419 211.429 582.273 211.057 582.127C214.476 585.128 217.918 588.098 221.42 591.008C222.13 591.599 222.842 592.18 223.552 592.771C223.796 592.724 224.065 592.776 224.29 592.987C226.264 594.825 228.703 596.125 231.03 597.471C233.502 598.914 235.841 600.541 238.452 601.735C241.094 602.953 243.855 603.888 246.616 604.823C248.139 605.344 249.632 605.992 251.143 606.545C251.608 606.611 252.073 606.667 252.551 606.712C261.388 607.594 270.918 604.976 275.946 597.282C278.54 593.316 280.141 588.437 281.196 583.852C282.285 579.097 280.91 575.048 279.122 570.655C278.641 569.465 278.126 568.284 277.6 567.112C278.698 567.926 279.961 568.579 281.002 568.99C282.2 569.476 284.937 570.14 284.104 567.932C279.854 556.712 273.269 546.359 263.917 538.609C255.542 531.675 245.453 527.432 234.879 525.204C247.296 526.131 259.314 531.173 268.324 539.88C266.964 539.802 269.708 542.322 270.631 542.551C270.811 542.629 270.991 542.707 271.171 542.785C272.011 543.537 275.137 544.563 273.359 542.578C264.501 532.684 252.298 525.978 239.3 523.444C238.828 523.172 238.331 522.953 237.966 522.861C228.896 520.517 219.524 520.524 210.479 522.94C210.156 523.024 210.365 523.46 210.82 523.957C206.442 524.534 202.148 525.602 198.101 527.325C197.084 526.895 196.146 526.729 195.512 527.028C189.755 529.738 185.593 533.945 182.838 538.924C178.406 544.73 176.021 551.818 176.322 559.523C176.48 563.506 177.292 567.342 178.597 571.02C178.394 570.811 178.22 570.647 178.159 570.588C177.811 570.272 177.43 569.953 177.036 569.654C172.412 556.53 175.147 541.643 184.527 531.04C187.312 527.898 190.587 525.212 194.226 523.093C194.717 522.805 193.078 521.466 192.587 521.754C190.614 522.905 188.792 524.218 187.082 525.658C186.799 525.487 186.524 525.369 186.324 525.419C182.092 526.535 178.561 528.965 175.829 532.132C175.963 531.495 176.075 530.855 176.135 530.18C176.168 529.729 176.019 529.233 175.75 528.728C175 529.277 174.305 529.809 173.667 530.324L173.644 530.344C173.017 530.848 172.435 531.345 171.921 531.804C171.898 531.824 171.874 531.855 171.85 531.875C171.348 532.324 170.89 532.765 170.501 533.158C170.477 533.188 170.453 533.208 170.43 533.228C170.04 533.631 169.707 534.006 169.442 534.343C165.192 539.752 159.108 555.333 154.257 561.497C152.259 564.038 149.767 568.4 147.578 573.851C155.466 574.124 164.158 574.165 165.588 576.114C170.485 582.816 175.391 589.53 180.785 595.847C183.784 599.357 186.933 602.748 190.224 605.999C190.754 606.523 191.295 607.048 191.573 607.727C191.926 608.573 191.836 609.505 191.78 610.429C191.766 610.622 191.752 610.815 191.738 611.008C191.669 613.151 192.966 613.936 194.534 615.054C195.24 615.559 198.948 618.624 199.892 617.97C199.823 618.018 199.753 618.078 199.684 618.127C198.43 618.996 202.205 622.045 202.568 622.308C202.734 622.428 202.921 622.561 203.108 622.693C202.773 622.938 202.459 623.207 202.114 623.441C200.023 624.853 203.983 627.775 207.207 629.251C207.269 629.59 207.311 629.916 207.437 630.282C208.175 632.44 213.505 636.497 215.993 635.481L215.962 635.446ZM171.11 550.414C171.207 548.942 171.357 547.475 171.627 546.027C173.015 538.521 177.469 531.367 184.43 528.022C176.205 536.271 171.841 547.877 173.078 559.675C172.155 556.608 171.441 553.513 171.11 550.414Z" fill="#240057"/>
<path d="M254.749 613.412C254.728 613.249 254.718 613.086 254.686 612.922C254.654 612.769 254.611 612.615 254.567 612.46C254.549 612.405 254.532 612.35 254.502 612.305C254.373 611.982 254.353 611.657 254.397 611.347C250.222 611.388 245.903 610.404 242.085 609.284C237.08 607.819 231.856 605.765 227.703 602.506C227.686 602.591 227.638 602.641 227.641 602.749C227.647 604.174 229.943 605.788 231.204 606.462C231.908 607.15 232.749 607.751 233.051 607.956C238.472 611.643 244.904 615.263 251.724 614.454C252.649 614.349 253.997 614.145 254.737 613.422L254.749 613.412Z" fill="#240057"/>
<path d="M246.786 633.647C248.391 632.761 250.344 631.134 249.829 629.067C249.541 627.924 248.834 626.977 247.977 626.159C247.475 625.55 246.881 625 246.304 624.526C244.903 623.377 243.307 622.484 241.592 621.895C239.588 621.209 237.54 621.146 235.452 621.469C233.64 621.747 231.71 622.61 230.771 624.246C229.506 626.463 230.489 628.715 232.145 630.422C235.752 634.127 241.937 636.337 246.775 633.647L246.786 633.647Z" fill="#240057"/>
<path d="M169.65 617.178C161.377 613.802 152.721 611.325 143.886 609.807C144.344 611.47 144.906 613.194 145.564 614.958C148.996 615.068 152.421 615.285 155.834 615.664C160.579 616.506 165.257 617.656 169.812 619.154C179.895 623.18 189.384 628.599 197.973 635.289C198.669 635.934 199.376 636.579 200.047 637.264C200.311 637.532 200.846 637.84 201.407 638.076C201.994 638.572 202.592 639.058 203.167 639.563C204.511 640.751 207.214 640.981 204.966 639.004C203.324 637.557 201.623 636.17 199.908 634.815C191.167 626.775 180.795 621.023 169.66 617.19L169.65 617.178Z" fill="#240057"/>
<path d="M184.372 630.23C184.655 630.402 184.937 630.573 185.22 630.745C185.721 631.062 186.134 631.232 186.479 631.301C187.352 631.764 188.212 632.247 189.061 632.741C189.501 632.999 190.65 633.558 190.857 632.818C191.049 632.13 189.322 631.109 188.924 630.875C187.373 629.974 185.796 629.125 184.206 628.319C172.589 621.213 159.451 616.996 145.986 616.068C146.316 616.934 146.678 617.802 147.051 618.682C149.065 618.775 151.084 618.944 153.076 619.186C151.092 618.987 149.092 618.852 147.087 618.782C147.47 619.684 147.841 620.585 148.276 621.501C160.801 621.702 173.161 624.611 184.384 630.22L184.372 630.23Z" fill="#240057"/>
<path d="M235.104 615.887C235.217 615.841 235.257 615.747 235.244 615.616L235.166 615.341C235.061 615.139 234.909 614.966 234.758 614.793C234.739 614.759 234.731 614.716 234.701 614.681C234.6 614.566 234.499 614.451 234.398 614.335C234.134 614.068 233.845 613.842 233.543 613.636C233.104 613.356 232.643 613.096 232.128 612.961C231.807 612.873 231.497 612.786 231.176 612.697L230.808 612.638C230.658 612.606 230.535 612.64 230.43 612.729C230.352 612.756 230.316 612.807 230.32 612.894C230.267 613.02 230.29 613.151 230.38 613.276L230.575 613.592C230.676 613.708 230.777 613.823 230.878 613.938C231.071 614.136 231.276 614.313 231.505 614.47C231.732 614.648 231.983 614.807 232.235 614.944C232.646 615.146 233.057 615.349 233.459 615.54C233.679 615.664 233.912 615.767 234.158 615.839C234.349 615.918 234.542 615.964 234.748 615.979C234.899 616.012 235.021 615.978 235.126 615.888L235.104 615.887Z" fill="#240057"/>
<path d="M279.395 548.931C282.354 554.478 285.895 559.699 288.992 565.159C289.073 565.1 289.133 565.018 289.123 564.866C289.07 564.388 288.996 563.907 288.922 563.427C289.045 563.382 289.107 563.279 289.087 563.105C288.84 561.554 288.404 560.044 287.833 558.589C287.692 558.126 287.506 557.67 287.343 557.215C287.145 557.082 286.973 556.897 286.827 556.649C286.391 555.883 285.945 555.117 285.477 554.349C283.756 551.882 281.42 549.91 279.085 547.937C278.916 548.001 278.766 548.119 278.606 548.205C278.914 548.335 279.193 548.549 279.395 548.92L279.395 548.931Z" fill="#240057"/>
<path d="M275.939 581.042C275.13 565.778 265.764 552.513 253.447 543.781C240.402 534.542 222.031 529.286 206.866 536.392C205.916 536.841 209.069 539.585 210.143 539.081C223.917 532.628 240.607 536.521 252.59 545.046C263.722 552.958 271.489 565.383 272.208 579.032C272.274 580.235 275.991 581.984 275.939 581.052L275.939 581.042Z" fill="#240057"/>
<path d="M335.319 722.998C347.432 712.658 331.119 673.193 297.369 625.098C295.959 628.556 294.454 631.36 293.01 633.64C313.8 666.093 322.896 691.597 314.277 698.954C305.658 706.31 280.706 693.344 250.605 667.55C234.27 653.55 216.383 635.822 198.668 615.571C181.69 596.161 167.047 576.933 155.602 559.523C133.106 525.306 122.975 498.118 131.92 490.494C140.387 483.266 163.923 495.287 192.722 519.455C195.723 518.292 198.898 517.293 202.184 516.562C159.442 477.339 122.875 456.199 110.89 466.429C98.5554 476.957 115.703 517.713 150.731 567.013C162.855 584.084 177.113 602.162 193.053 620.384C208.993 638.607 225.155 655.281 240.545 669.654C284.775 710.939 323.016 733.539 335.339 723.021L335.319 722.998Z" fill="#240057"/>
<path d="M335.319 722.998C347.432 712.658 331.119 673.193 297.369 625.098C295.959 628.556 294.454 631.36 293.01 633.64C313.8 666.093 322.896 691.597 314.277 698.954C305.658 706.31 280.706 693.344 250.605 667.55C236.892 655.792 222.083 641.385 207.193 625.084C204.351 621.974 201.512 618.811 198.668 615.571C181.69 596.161 167.047 576.933 155.602 559.523C155.465 559.308 155.338 559.105 155.19 558.889C162.717 574.146 173.568 591.911 187.12 610.974C190.914 616.312 194.94 621.763 199.137 627.27C213.117 642.857 227.097 657.106 240.534 669.654C248.623 677.204 256.497 684.112 264.061 690.329C297.874 718.088 325.253 731.619 335.317 723.019L335.319 722.998Z" fill="#5D13D1"/>
<path opacity="0.7" d="M1180.29 228.169C1180.29 227.476 1179.87 226.905 1178.99 226.525C1178.61 226.357 1178.19 226.256 1177.74 226.2C1177.7 225.865 1177.46 225.574 1176.89 225.373C1173.56 224.198 1167.5 225.82 1167.05 229.947C1166.76 232.621 1167.59 235.014 1170.4 235.741C1173.59 236.569 1178.55 235.395 1180.39 232.442C1181.29 231.01 1181.14 229.399 1180.3 228.169H1180.29Z" fill="#A079FF"/>
<path opacity="0.7" d="M1157.79 182.749C1157.67 181.869 1156.91 180.647 1155.99 180.441C1155.93 180.327 1155.88 180.212 1155.82 180.098C1154.02 176.933 1149.9 176.556 1146.71 177.367C1143.44 178.201 1140.3 180.704 1140.02 184.303C1139.76 187.583 1141.99 191.274 1144.72 192.977C1147.96 194.977 1152.54 193.822 1155.25 191.434C1158.08 188.943 1158.29 186.303 1157.78 182.761L1157.79 182.749Z" fill="#A079FF"/>
<path opacity="0.7" d="M1182.29 613.169C1182.29 612.476 1181.87 611.905 1180.99 611.525C1180.61 611.357 1180.19 611.256 1179.74 611.2C1179.7 610.865 1179.46 610.574 1178.89 610.373C1175.56 609.198 1169.5 610.82 1169.05 614.947C1168.76 617.621 1169.59 620.014 1172.4 620.741C1175.59 621.569 1180.55 620.395 1182.39 617.442C1183.29 616.01 1183.14 614.399 1182.3 613.169H1182.29Z" fill="#A079FF"/>
<path opacity="0.7" d="M1248.79 570.749C1248.67 569.869 1247.91 568.647 1246.99 568.441C1246.93 568.327 1246.88 568.212 1246.82 568.098C1245.02 564.933 1240.9 564.556 1237.71 565.367C1234.44 566.201 1231.3 568.704 1231.02 572.303C1230.76 575.583 1232.99 579.274 1235.72 580.977C1238.96 582.977 1243.54 581.822 1246.25 579.434C1249.08 576.943 1249.29 574.303 1248.78 570.761L1248.79 570.749Z" fill="#A079FF"/>
<path opacity="0.7" d="M227.794 168.749C227.67 167.869 226.912 166.647 225.985 166.441C225.929 166.327 225.884 166.212 225.816 166.098C224.018 162.933 219.902 162.556 216.714 163.367C213.435 164.201 210.303 166.704 210.021 170.303C209.761 173.583 211.988 177.274 214.724 178.977C217.958 180.977 222.537 179.822 225.25 177.434C228.077 174.943 228.292 172.303 227.783 168.761L227.794 168.749Z" fill="#A079FF"/>
<path opacity="0.7" d="M1066.71 223.169C1066.71 222.476 1067.13 221.905 1068.01 221.525C1068.39 221.357 1068.81 221.256 1069.26 221.2C1069.3 220.865 1069.54 220.574 1070.11 220.373C1073.44 219.198 1079.5 220.82 1079.95 224.947C1080.24 227.621 1079.41 230.014 1076.6 230.741C1073.41 231.569 1068.45 230.395 1066.61 227.442C1065.71 226.01 1065.86 224.399 1066.7 223.169H1066.71Z" fill="#B2DDFF"/>
<path d="M651.195 169.909C651.195 176.254 649.992 181.652 647.587 186.102C645.2 190.553 641.943 193.953 637.814 196.301C633.704 198.631 629.083 199.795 623.95 199.795C618.78 199.795 614.14 198.621 610.03 196.273C605.92 193.924 602.672 190.525 600.286 186.074C597.899 181.623 596.706 176.235 596.706 169.909C596.706 163.564 597.899 158.167 600.286 153.716C602.672 149.265 605.92 145.875 610.03 143.545C614.14 141.197 618.78 140.023 623.95 140.023C629.083 140.023 633.704 141.197 637.814 143.545C641.943 145.875 645.2 149.265 647.587 153.716C649.992 158.167 651.195 163.564 651.195 169.909ZM638.723 169.909C638.723 165.799 638.107 162.333 636.876 159.511C635.664 156.689 633.95 154.549 631.734 153.091C629.518 151.633 626.924 150.903 623.95 150.903C620.977 150.903 618.382 151.633 616.166 153.091C613.95 154.549 612.227 156.689 610.996 159.511C609.784 162.333 609.178 165.799 609.178 169.909C609.178 174.019 609.784 177.485 610.996 180.307C612.227 183.129 613.95 185.269 616.166 186.727C618.382 188.186 620.977 188.915 623.95 188.915C626.924 188.915 629.518 188.186 631.734 186.727C633.95 185.269 635.664 183.129 636.876 180.307C638.107 177.485 638.723 174.019 638.723 169.909ZM660.307 199V140.818H698.915V150.96H672.608V162.324H682.068C686.67 162.324 690.638 163.072 693.972 164.568C697.324 166.045 699.909 168.138 701.727 170.847C703.545 173.555 704.455 176.746 704.455 180.42C704.455 184.076 703.545 187.305 701.727 190.108C699.909 192.892 697.324 195.07 693.972 196.642C690.638 198.214 686.67 199 682.068 199H660.307ZM672.608 189.114H682.068C684.265 189.114 686.121 188.716 687.636 187.92C689.152 187.106 690.297 186.036 691.074 184.71C691.869 183.366 692.267 181.898 692.267 180.307C692.267 177.996 691.386 176.045 689.625 174.455C687.883 172.845 685.364 172.04 682.068 172.04H672.608V189.114ZM765.882 169.909C765.882 176.254 764.679 181.652 762.274 186.102C759.888 190.553 756.63 193.953 752.501 196.301C748.392 198.631 743.77 199.795 738.638 199.795C733.467 199.795 728.827 198.621 724.717 196.273C720.607 193.924 717.359 190.525 714.973 186.074C712.587 181.623 711.393 176.235 711.393 169.909C711.393 163.564 712.587 158.167 714.973 153.716C717.359 149.265 720.607 145.875 724.717 143.545C728.827 141.197 733.467 140.023 738.638 140.023C743.77 140.023 748.392 141.197 752.501 143.545C756.63 145.875 759.888 149.265 762.274 153.716C764.679 158.167 765.882 163.564 765.882 169.909ZM753.411 169.909C753.411 165.799 752.795 162.333 751.564 159.511C750.352 156.689 748.638 154.549 746.422 153.091C744.206 151.633 741.611 150.903 738.638 150.903C735.664 150.903 733.07 151.633 730.854 153.091C728.638 154.549 726.914 156.689 725.683 159.511C724.471 162.333 723.865 165.799 723.865 169.909C723.865 174.019 724.471 177.485 725.683 180.307C726.914 183.129 728.638 185.269 730.854 186.727C733.07 188.186 735.664 188.915 738.638 188.915C741.611 188.915 744.206 188.186 746.422 186.727C748.638 185.269 750.352 183.129 751.564 180.307C752.795 177.485 753.411 174.019 753.411 169.909ZM793.51 140.818H808.68L824.703 179.909H825.385L841.408 140.818H856.578V199H844.646V161.131H844.163L829.107 198.716H820.982L805.925 160.989H805.442V199H793.51V140.818ZM866.713 199V140.818H879.014V164.824H903.986V140.818H916.259V199H903.986V174.966H879.014V199H866.713ZM926.401 199V140.818H965.605V150.96H938.702V164.824H963.588V174.966H938.702V188.858H965.719V199H926.401Z" fill="black"/>
<path d="M646.195 164.909C646.195 171.254 644.992 176.652 642.587 181.102C640.2 185.553 636.943 188.953 632.814 191.301C628.704 193.631 624.083 194.795 618.95 194.795C613.78 194.795 609.14 193.621 605.03 191.273C600.92 188.924 597.672 185.525 595.286 181.074C592.899 176.623 591.706 171.235 591.706 164.909C591.706 158.564 592.899 153.167 595.286 148.716C597.672 144.265 600.92 140.875 605.03 138.545C609.14 136.197 613.78 135.023 618.95 135.023C624.083 135.023 628.704 136.197 632.814 138.545C636.943 140.875 640.2 144.265 642.587 148.716C644.992 153.167 646.195 158.564 646.195 164.909ZM633.723 164.909C633.723 160.799 633.107 157.333 631.876 154.511C630.664 151.689 628.95 149.549 626.734 148.091C624.518 146.633 621.924 145.903 618.95 145.903C615.977 145.903 613.382 146.633 611.166 148.091C608.95 149.549 607.227 151.689 605.996 154.511C604.784 157.333 604.178 160.799 604.178 164.909C604.178 169.019 604.784 172.485 605.996 175.307C607.227 178.129 608.95 180.269 611.166 181.727C613.382 183.186 615.977 183.915 618.95 183.915C621.924 183.915 624.518 183.186 626.734 181.727C628.95 180.269 630.664 178.129 631.876 175.307C633.107 172.485 633.723 169.019 633.723 164.909ZM655.307 194V135.818H693.915V145.96H667.608V157.324H677.068C681.67 157.324 685.638 158.072 688.972 159.568C692.324 161.045 694.909 163.138 696.727 165.847C698.545 168.555 699.455 171.746 699.455 175.42C699.455 179.076 698.545 182.305 696.727 185.108C694.909 187.892 692.324 190.07 688.972 191.642C685.638 193.214 681.67 194 677.068 194H655.307ZM667.608 184.114H677.068C679.265 184.114 681.121 183.716 682.636 182.92C684.152 182.106 685.297 181.036 686.074 179.71C686.869 178.366 687.267 176.898 687.267 175.307C687.267 172.996 686.386 171.045 684.625 169.455C682.883 167.845 680.364 167.04 677.068 167.04H667.608V184.114ZM760.882 164.909C760.882 171.254 759.679 176.652 757.274 181.102C754.888 185.553 751.63 188.953 747.501 191.301C743.392 193.631 738.77 194.795 733.638 194.795C728.467 194.795 723.827 193.621 719.717 191.273C715.607 188.924 712.359 185.525 709.973 181.074C707.587 176.623 706.393 171.235 706.393 164.909C706.393 158.564 707.587 153.167 709.973 148.716C712.359 144.265 715.607 140.875 719.717 138.545C723.827 136.197 728.467 135.023 733.638 135.023C738.77 135.023 743.392 136.197 747.501 138.545C751.63 140.875 754.888 144.265 757.274 148.716C759.679 153.167 760.882 158.564 760.882 164.909ZM748.411 164.909C748.411 160.799 747.795 157.333 746.564 154.511C745.352 151.689 743.638 149.549 741.422 148.091C739.206 146.633 736.611 145.903 733.638 145.903C730.664 145.903 728.07 146.633 725.854 148.091C723.638 149.549 721.914 151.689 720.683 154.511C719.471 157.333 718.865 160.799 718.865 164.909C718.865 169.019 719.471 172.485 720.683 175.307C721.914 178.129 723.638 180.269 725.854 181.727C728.07 183.186 730.664 183.915 733.638 183.915C736.611 183.915 739.206 183.186 741.422 181.727C743.638 180.269 745.352 178.129 746.564 175.307C747.795 172.485 748.411 169.019 748.411 164.909ZM788.51 135.818H803.68L819.703 174.909H820.385L836.408 135.818H851.578V194H839.646V156.131H839.163L824.107 193.716H815.982L800.925 155.989H800.442V194H788.51V135.818ZM861.713 194V135.818H874.014V159.824H898.986V135.818H911.259V194H898.986V169.966H874.014V194H861.713ZM921.401 194V135.818H960.605V145.96H933.702V159.824H958.588V169.966H933.702V183.858H960.719V194H921.401Z" fill="white"/>
<path opacity="0.7" d="M1172.21 386.749C1172.33 385.869 1173.09 384.647 1174.01 384.441C1174.07 384.327 1174.12 384.212 1174.18 384.098C1175.98 380.933 1180.1 380.556 1183.29 381.367C1186.56 382.201 1189.7 384.704 1189.98 388.303C1190.24 391.583 1188.01 395.274 1185.28 396.977C1182.04 398.977 1177.46 397.822 1174.75 395.434C1171.92 392.943 1171.71 390.303 1172.22 386.761L1172.21 386.749Z" fill="#7DC6FF"/>
<path d="M324 314H1218.88V602C1218.88 607.523 1214.4 612 1208.88 612H334C328.477 612 324 607.523 324 602V314Z" fill="#240057"/>
<rect x="847" y="290" width="376" height="346" rx="10" fill="#D2D0F7"/>
<ellipse cx="876.235" cy="318.235" rx="8.41167" ry="8.41167" fill="#FF6A00" stroke="black"/>
<ellipse cx="899.788" cy="318.235" rx="8.41167" ry="8.41167" fill="#FFE603" stroke="black"/>
<ellipse cx="923.34" cy="318.235" rx="8.41167" ry="8.41167" fill="#04C800" stroke="black"/>
</svg>
