<svg width="1296" height="650" viewBox="0 0 1440 750" fill="none" xmlns="http://www.w3.org/2000/svg">
<g clip-path="url(#clip0_5732_194)">
<rect width="1440" height="750" fill="#200153"/>
<g opacity="0.5">
<path d="M708.597 495.6C710.124 493.836 714.142 490.108 718.782 485.951C721.604 483.42 725.688 487.075 723.487 490.161C709.701 509.453 691.188 535.11 687.375 539.195L679.345 547.8L671.315 539.195C682.213 527.721 701.142 504.206 708.597 495.6Z" fill="#515092"/>
<path d="M677.878 551.514C676.47 552.234 674.613 551.944 672.934 551.21C672.458 551.481 671.533 551.051 671.156 550.84C668.387 549.313 666.655 546.445 667.554 543.272C668.374 540.378 670.958 538.395 673.998 538.633C676.972 538.864 680.197 541.21 681.083 544.112C681.856 546.637 680.237 550.311 677.878 551.514Z" fill="#BAA4FF"/>
</g>
<g opacity="0.5">
<path d="M63.2501 104.168C62.3176 102.812 64.2058 101.27 65.4157 102.38C73.6388 109.956 89.877 125.786 94.1389 130.703C100.458 137.993 116.496 157.923 125.729 167.641C134.962 177.359 173.28 219.03 173.28 219.03L160.725 228.879C160.725 228.879 118.924 174.932 112.119 167.641C106.007 161.09 79.0644 127.296 63.2501 104.168Z" fill="#515092"/>
<path d="M173.973 215.847C172.331 214.028 169.488 213.419 166.659 213.55C166.12 212.887 164.54 213.003 163.885 213.095C159.037 213.774 154.937 216.956 154.483 222.051C154.066 226.69 156.71 230.991 161.234 232.331C165.657 233.642 171.622 232.046 174.512 228.339C177.025 225.11 176.724 218.906 173.973 215.854V215.847Z" fill="#BAA4FF"/>
</g>
<g opacity="0.5">
<path d="M1417.74 114.24C1419.52 112.182 1424.21 107.836 1429.62 102.988C1432.91 100.036 1437.67 104.298 1435.11 107.897C1426.44 120.012 1416.19 134.293 1407.86 145.622C1400.74 155.325 1389.23 148.288 1397.38 138.555C1405.62 128.721 1413.37 119.28 1417.74 114.24Z" fill="#515092"/>
<path d="M1399.55 151.479C1398.24 151.078 1397.07 150.238 1396.02 149.221C1395.53 148.751 1395.05 148.266 1394.71 147.687C1393.74 146.023 1393.94 143.803 1394.3 141.946C1394.68 139.934 1395.93 138.17 1397.77 137.091C1400.8 135.318 1404.53 135.626 1406.82 138.093C1409.07 140.505 1409.8 144.851 1408.16 147.903C1407.09 149.876 1404.75 151.156 1402.59 151.602C1401.49 151.834 1400.48 151.757 1399.55 151.471L1399.55 151.479Z" fill="#BAA4FF"/>
</g>
<path opacity="0.5" d="M357.709 96.169C357.709 95.4755 358.134 94.905 359.007 94.5247C359.387 94.357 359.813 94.2563 360.26 94.2004C360.305 93.8648 360.54 93.574 361.11 93.3727C364.445 92.1982 370.498 93.8201 370.945 97.9474C371.236 100.621 370.408 103.014 367.6 103.741C364.411 104.569 359.455 103.395 357.609 100.442C356.713 99.01 356.859 97.3994 357.698 96.169H357.709Z" fill="#A079FF"/>
<path opacity="0.5" d="M380.206 50.7493C380.33 49.8694 381.088 48.6467 382.015 48.441C382.071 48.3268 382.116 48.2125 382.184 48.0982C383.982 44.9328 388.098 44.5557 391.286 45.3671C394.565 46.2013 397.697 48.7039 397.979 52.3035C398.239 55.5831 396.012 59.2741 393.276 60.9768C390.042 62.9765 385.463 61.8224 382.75 59.4341C379.923 56.9429 379.708 54.3032 380.217 50.7607L380.206 50.7493Z" fill="#A079FF"/>
<path d="M68.2021 672.261C68.2021 672.261 83.2666 681.732 100.427 672.415C117.587 663.098 118.652 653.694 118.652 653.694C118.652 653.694 123.299 649.536 124.049 641.283C124.798 633.031 121.422 624.41 121.338 621.841C121.253 619.271 116.691 606.064 106.708 599.713C96.7278 593.367 77.1066 590.945 68.4807 594.324C59.8548 597.703 53.4245 605.114 51.489 608.78C49.5586 612.443 43.3461 618.749 41.6532 621.966C39.7227 625.629 36.6615 641.671 44.7113 651.68C52.7611 661.69 53.8577 663.71 57.0583 667.202C60.2589 670.695 68.1921 672.266 68.1921 672.266L68.2021 672.261Z" fill="#5D13D1"/>
<path d="M120.255 617.743C120.957 619.659 121.313 621.14 121.334 621.836C121.373 622.911 121.984 625.052 122.627 627.779C122.014 627.605 121.418 627.345 120.885 627.031C120.743 626.998 120.597 626.967 120.456 626.946C120.435 626.944 120.389 626.931 120.337 626.919C120.301 626.913 120.266 626.907 120.225 626.903L120.24 626.907C120.173 626.892 120.097 626.894 120.025 626.882C119.72 626.859 119.419 626.841 119.112 626.838C118.538 626.832 117.907 626.578 117.406 626.337C117.027 626.153 116.637 625.924 116.268 625.664C114.893 625.378 113.5 625.012 112.099 624.618C105.236 622.711 98.6531 620.004 92.403 616.584C91.3968 616.034 90.4025 615.457 89.4156 614.871C89.0616 615.043 88.3824 614.88 87.9694 614.741C87.1639 614.464 86.3703 614.162 85.5812 613.844C85.5597 613.888 85.5487 613.94 85.5145 613.984C84.9694 614.618 83.064 613.511 82.6522 613.254C82.1567 612.939 81.6758 612.603 81.1876 612.278C80.6763 612.173 80.1265 611.913 79.8932 611.806C79.8491 611.785 79.8023 611.758 79.7532 611.739C79.4745 612.027 78.9158 611.954 78.35 611.749C78.2601 612.336 77.251 612.151 76.6925 611.935C75.4359 611.449 74.1747 610.979 72.9062 610.519C72.6261 610.84 71.8118 610.678 71.336 610.495C69.5464 609.793 67.7362 609.16 65.905 608.584C65.8408 608.573 65.7766 608.562 65.702 608.545C64.6485 608.254 63.5923 607.957 62.5387 607.666C62.3927 607.876 62.0325 607.941 61.5293 607.851C58.7795 607.352 56.0873 606.672 53.4163 605.864C56.3816 602.015 61.7606 596.947 68.4776 594.319C69.2154 594.028 70.0524 593.801 70.9385 593.593C76.2481 600.443 82.5384 606.412 89.9687 611.001C96.9745 615.335 112.733 624.209 120.252 617.738L120.255 617.743Z" fill="#240057"/>
<path d="M100.488 622.058C100.615 626.116 96.8484 628.823 93.1209 629.225C91.8877 629.356 90.665 629.267 89.4575 629.027C89.6311 629.179 89.8132 629.359 89.9649 629.543C90.4307 629.887 90.9116 630.223 91.3702 630.578C91.8392 630.939 93.1203 631.925 92.5483 632.592C92.0059 633.23 90.0978 632.118 89.686 631.862C87.9472 630.775 86.1756 629.699 84.3729 628.686C85.0775 629.147 85.7702 629.634 86.4282 630.153C86.6668 630.341 87.4957 631.007 87.5016 631.484C87.5834 631.563 87.6697 631.626 87.7465 631.708C88.0449 632.007 88.8502 632.88 88.0242 633.056C87.3376 633.202 86.3737 632.693 85.7565 632.25C85.7303 632.381 85.6395 632.489 85.4064 632.537C85.0262 632.614 84.5681 632.499 84.1302 632.302C83.9476 632.336 83.7274 632.313 83.5008 632.255C83.629 632.347 83.7545 632.435 83.8826 632.528C84.2017 632.757 85.4804 633.821 84.7332 634.214C84.6129 634.279 84.4732 634.296 84.3225 634.294C81.1534 632.413 77.7194 631 74.244 629.799C73.2293 629.448 72.1935 629.153 71.1811 628.795C70.4071 628.469 69.6408 628.145 68.8622 627.834C68.6391 627.65 68.441 627.453 68.2653 627.237C68.1028 627.033 67.8226 626.673 67.987 626.402C68.1491 626.138 68.6314 626.214 68.8552 626.268C69.7118 626.471 70.5635 626.677 71.4201 626.88C71.577 626.918 71.7426 626.984 71.9027 627.04C71.9873 626.825 72.3119 626.766 72.7578 626.822C73.1755 626.875 73.5818 626.965 73.9977 627.038C73.9314 626.964 73.8527 626.903 73.7914 626.826C73.7088 626.721 73.594 626.57 73.5274 626.411C73.2938 626.22 73.0853 626.015 72.9041 625.789C72.3629 625.103 72.6418 624.672 73.499 624.817C73.5477 624.823 73.5941 624.837 73.6455 624.848C73.8583 624.726 74.1972 624.788 74.3947 624.817C75.9463 625.046 77.478 625.441 78.9634 625.977C74.5118 624.053 69.8198 622.869 64.792 623.302C59.7565 623.732 54.7465 626.277 51.6958 630.244C51.2313 631.074 50.8087 631.933 50.4878 632.86C49.1569 636.671 49.17 640.759 50.0873 644.647C50.3374 644.797 50.5446 644.964 50.6007 645.115C53.8863 654.369 61.2102 661.022 70.1519 664.045C69.7637 663.808 69.3754 663.571 68.9982 663.282C68.8123 663.143 68.7065 663.032 68.6266 662.933C70.787 664.186 73.3057 664.869 75.7598 665.146C77.3838 665.329 79.0874 665.299 80.7283 664.999C80.8557 664.995 80.9882 664.988 81.1106 664.986C83.5417 664.886 85.7454 664.702 87.7459 663.187C89.4651 661.884 91.1558 660.337 92.4576 658.611C95.0813 655.149 95.1435 651.475 93.868 648.014C93.8316 647.995 93.793 647.983 93.7566 647.964C93.6306 647.935 93.5069 647.899 93.4268 647.871C93.4322 647.881 93.435 647.886 93.4404 647.896C93.5968 648.22 93.3319 648.234 93.0989 648.211C93.0637 648.302 93.0335 648.389 92.9983 648.48C92.9795 648.529 92.9344 648.553 92.8866 648.573C92.8801 648.609 92.876 648.637 92.8723 648.678C92.862 648.826 92.7435 648.871 92.5747 648.859C92.8554 649.615 93.1188 650.387 93.3221 651.192C93.4282 651.614 92.4818 651.246 92.3804 651.19C91.9889 651.007 91.4366 650.671 91.3241 650.213C90.7418 647.933 89.8046 645.873 88.608 643.991L87.7383 643.023C88.1024 643.526 88.4591 644.04 88.7908 644.567C89.0522 644.977 89.1108 645.276 89.0466 645.492C91.8113 652.927 83.2456 658.389 75.4291 657.928C68.4231 657.514 60.7375 653.602 56.4401 647.707C57.6018 650.217 59.4898 652.546 61.174 654.286C65.0682 658.291 70.2064 661.049 75.8782 661.098C78.9157 661.123 81.9119 660.378 84.5206 658.813C84.7757 658.661 85.6583 659.331 85.4109 659.484C74.5907 665.969 60.917 658.008 55.7339 647.876C55.2038 646.84 54.7982 645.71 54.5833 644.562C54.4541 644.288 54.3172 644.012 54.2031 643.73C52.8016 640.24 52.3023 635.281 54.7844 632.084C57.4623 628.638 62.5782 628.774 66.4692 629.439C69.1281 629.89 71.7058 630.729 74.1627 631.848L74.1545 631.833C74.0037 631.675 73.8507 631.524 73.7003 631.379C75.8844 632.354 78.0589 633.347 80.217 634.381C80.6554 634.591 81.0887 634.804 81.5271 635.013C81.5569 635.14 81.6399 635.257 81.79 635.318C83.102 635.858 84.2545 636.738 85.4049 637.554C86.6335 638.419 87.9223 639.179 89.0605 640.164C90.2169 641.158 91.2625 642.271 92.3081 643.384C92.8877 643.997 93.5219 644.568 94.1138 645.168C94.2458 645.375 94.3729 645.586 94.4976 645.803C96.8256 649.828 97.6136 654.948 94.9828 659.031C93.6274 661.136 91.6172 662.967 89.6317 664.474C87.5715 666.033 85.3209 666.263 82.8161 666.37C82.1383 666.401 81.4574 666.414 80.7788 666.419C81.408 666.765 81.9952 667.225 82.4172 667.632C82.9101 668.097 83.8195 669.258 82.5746 669.344C76.2451 669.769 69.8308 668.891 64.0773 666.123C58.9281 663.643 54.7088 659.756 51.3573 655.197C54.4776 660.92 59.4979 665.553 65.6394 667.948C65.3093 667.316 67.1161 668.074 67.4253 668.465C67.5016 668.533 67.578 668.602 67.6543 668.671C68.1982 668.908 69.3663 670.175 68.0254 669.761C61.3439 667.698 55.4806 663.341 51.4594 657.692C51.2267 657.526 51.0136 657.337 50.8911 657.183C47.8071 653.367 45.7931 648.893 45.0119 644.048C44.9831 643.875 45.2384 643.88 45.5764 643.988C44.9121 641.773 44.5032 639.49 44.4635 637.182C44.0369 636.79 43.7551 636.379 43.763 636.011C43.8314 632.671 44.9657 629.764 46.7754 627.361C48.6234 623.976 51.531 621.287 55.3143 619.746C57.2702 618.95 59.2964 618.499 61.3522 618.317C61.2075 618.266 61.0911 618.219 61.0497 618.202C60.8219 618.105 60.5859 617.993 60.3572 617.871C53.0278 618.534 46.4323 623.095 43.3343 629.891C42.4174 631.907 41.8266 634.058 41.587 636.258C41.5537 636.555 40.5547 636.066 40.588 635.769C40.7187 634.575 40.9603 633.419 41.287 632.287C41.1434 632.19 41.0275 632.084 41.0086 631.978C40.6361 629.714 41.0486 627.498 41.9892 625.501C41.7102 625.705 41.4258 625.898 41.1128 626.075C40.9023 626.189 40.6306 626.226 40.3288 626.208C40.4326 625.73 40.54 625.282 40.6509 624.865L40.6555 624.85C40.7642 624.44 40.8787 624.054 40.9895 623.708C40.9941 623.693 41.0037 623.674 41.0083 623.659C41.1168 623.321 41.2312 623.006 41.3368 622.734C41.3464 622.716 41.351 622.701 41.3556 622.685C41.4663 622.411 41.5755 622.17 41.681 621.97C43.3767 618.758 49.5864 612.447 51.5169 608.784C52.3131 607.274 53.8815 605.132 56.0413 602.895C57.8711 606.599 59.7615 610.738 61.0104 610.995C65.2988 611.865 69.5949 612.738 73.8049 613.931C76.1444 614.594 78.4591 615.356 80.7363 616.215C81.1033 616.353 81.4731 616.497 81.8604 616.481C82.3447 616.465 82.7753 616.218 83.209 615.989C83.2993 615.94 83.3895 615.891 83.4797 615.842C84.4988 615.341 85.157 615.788 86.0339 616.292C86.4295 616.518 88.7071 617.617 88.5945 618.211C88.6032 618.167 88.6169 618.121 88.6257 618.077C88.7751 617.289 91.0591 618.424 91.2646 618.539C91.3582 618.592 91.4623 618.652 91.5664 618.713C91.6128 618.499 91.6747 618.29 91.7133 618.075C91.9448 616.768 94.2071 618.019 95.6134 619.234C95.7905 619.19 95.9572 619.138 96.1607 619.119C97.3611 618.999 100.466 620.655 100.512 622.065L100.488 622.058ZM49.7958 619.251C49.1065 619.619 48.4308 620.012 47.79 620.457C44.4663 622.761 41.9728 626.451 41.8571 630.505C44.0673 624.775 48.7291 620.155 54.6893 618.165C53.0103 618.395 51.363 618.731 49.7958 619.251Z" fill="#240057"/>
<path d="M98.2044 645.387C98.1211 645.413 98.0404 645.443 97.9544 645.464C97.8733 645.482 97.7896 645.495 97.7058 645.508C97.6753 645.512 97.6448 645.515 97.6166 645.511C97.4331 645.52 97.2719 645.582 97.132 645.671C96.2529 643.669 94.8483 641.823 93.4859 640.246C91.7012 638.178 89.5856 636.134 87.1185 634.865C87.1559 634.838 87.17 634.805 87.2229 634.782C87.9116 634.473 89.1846 635.216 89.7818 635.671C90.2652 635.856 90.7362 636.126 90.9003 636.225C93.8466 638.006 96.9781 640.284 98.0561 643.715C98.2045 644.18 98.3961 644.867 98.2067 645.379L98.2044 645.387Z" fill="#240057"/>
<path d="M106.256 637.161C106.173 638.121 105.808 639.409 104.7 639.615C104.087 639.727 103.477 639.598 102.898 639.367C102.496 639.261 102.103 639.098 101.75 638.926C100.894 638.508 100.119 637.943 99.4658 637.253C98.7036 636.447 98.2321 635.483 97.9383 634.416C97.6825 633.49 97.6833 632.38 98.271 631.574C99.0687 630.486 100.367 630.462 101.547 630.879C104.112 631.79 106.51 634.259 106.253 637.156L106.256 637.161Z" fill="#240057"/>
<path d="M81.7026 603.952C78.2921 600.742 75.2337 597.153 72.5991 593.269C73.5001 593.123 74.4534 593.015 75.4462 592.943C76.2382 594.557 77.0803 596.144 77.9976 597.69C79.4254 599.77 80.9877 601.751 82.6909 603.597C86.8046 607.528 91.4624 610.872 96.5403 613.507C97.0009 613.698 97.4643 613.895 97.9396 614.065C98.1256 614.132 98.3897 614.32 98.6241 614.537C98.9897 614.708 99.3531 614.887 99.7209 615.051C100.584 615.433 101.276 616.672 99.8383 616.032C98.7865 615.565 97.7511 615.056 96.7281 614.534C90.9662 612.121 85.9572 608.429 81.7103 603.954L81.7026 603.952Z" fill="#240057"/>
<path d="M91.1707 608.123C91.3143 608.22 91.4579 608.317 91.6016 608.415C91.8625 608.584 92.0338 608.745 92.1409 608.894C92.5522 609.209 92.9708 609.514 93.3917 609.811C93.6112 609.965 94.1283 610.391 93.8156 610.652C93.5252 610.894 92.6602 610.293 92.4616 610.154C91.693 609.611 90.9441 609.044 90.2124 608.462C84.2824 604.472 79.4191 599.124 76.0727 592.901C76.5616 592.869 77.0586 592.852 77.5634 592.838C78.0417 593.779 78.5579 594.705 79.1037 595.603C78.5807 594.7 78.085 593.775 77.6194 592.833C78.1369 592.819 78.6517 592.799 79.1878 592.806C81.9809 598.739 86.0452 604.001 91.1684 608.131L91.1707 608.123Z" fill="#240057"/>
<path d="M95.1696 635.471C95.1718 635.535 95.1349 635.574 95.0693 635.597L94.9195 635.62C94.7993 635.614 94.6834 635.579 94.5674 635.545C94.5469 635.543 94.5241 635.549 94.5009 635.542C94.4236 635.519 94.3463 635.496 94.2689 635.473C94.0829 635.406 93.9115 635.317 93.7474 635.218C93.5178 635.07 93.2928 634.907 93.1171 634.691C93.0054 634.556 92.8964 634.427 92.7847 634.293L92.6772 634.131C92.6291 634.066 92.6192 634 92.6398 633.931C92.6358 633.888 92.6527 633.859 92.6955 633.842C92.7447 633.79 92.813 633.772 92.8927 633.787L93.0874 633.811C93.1647 633.834 93.2421 633.857 93.3194 633.88C93.4563 633.929 93.5859 633.988 93.7109 634.063C93.846 634.133 93.9764 634.217 94.0969 634.308C94.2832 634.46 94.4695 634.612 94.6481 634.761C94.7553 634.839 94.8553 634.928 94.9429 635.029C95.022 635.103 95.086 635.185 95.1377 635.281C95.1858 635.345 95.1957 635.411 95.1751 635.481L95.1696 635.471Z" fill="#240057"/>
<path d="M72.3909 671.252C75.7048 671.451 78.9871 671.999 82.2886 672.283C82.2775 672.334 82.2511 672.381 82.1754 672.409C81.9332 672.489 81.6854 672.558 81.4377 672.628C81.4426 672.697 81.4061 672.749 81.3177 672.777C80.5163 672.998 79.6936 673.121 78.8683 673.166C78.6143 673.2 78.3544 673.212 78.0999 673.233C77.9931 673.168 77.8667 673.126 77.7156 673.111C77.2524 673.07 76.7864 673.025 76.315 672.969C74.7539 672.688 73.2993 672.005 71.8446 671.321C71.8389 671.227 71.8636 671.129 71.8707 671.035C71.9997 671.153 72.1634 671.239 72.3859 671.255L72.3909 671.252Z" fill="#240057"/>
<path d="M87.1436 662.58C79.6031 665.532 71.1852 663.964 64.3194 659.995C57.0527 655.79 50.5612 648.173 50.7261 639.382C50.7381 638.83 52.7412 639.734 52.7291 640.358C52.5803 648.342 58.0519 655.456 64.7454 659.31C70.9602 662.892 78.6287 663.881 85.3707 661.239C85.9651 661.007 87.6095 662.398 87.1486 662.577L87.1436 662.58Z" fill="#240057"/>
<path d="M168.435 659.87C166.053 667.912 143.495 668.758 113.019 663.171C114.384 661.741 115.413 660.41 116.203 659.223C136.34 662.046 150.606 660.809 152.302 655.086C153.997 649.364 142.368 640.292 123.439 631.569C113.167 626.835 100.76 622.176 87.1737 618.152C74.1516 614.294 61.7195 611.512 50.854 609.858C29.4976 606.606 14.1961 607.718 12.442 613.654C10.7767 619.276 21.6447 627.878 39.5074 636.336C39.5925 638.023 39.7939 639.756 40.1483 641.485C12.0183 629.666 -6.05586 616.838 -3.69885 608.881C-1.27312 600.692 22.0872 599.961 53.42 605.895C64.2682 607.948 76.0621 610.798 88.2878 614.419C100.513 618.04 112.04 622.107 122.289 626.308C151.735 638.386 170.874 651.693 168.45 659.874L168.435 659.87Z" fill="#240057"/>
<path d="M168.435 659.869C166.053 667.911 143.495 668.758 113.019 663.171C114.384 661.741 115.413 660.41 116.203 659.222C136.34 662.046 150.606 660.808 152.301 655.086C153.996 649.364 142.367 640.292 123.439 631.569C114.813 627.596 104.672 623.68 93.5999 620.139C91.4871 619.463 89.3493 618.8 87.1736 618.152C74.1515 614.294 61.7194 611.512 50.8539 609.858C50.7206 609.839 50.595 609.823 50.459 609.8C59.4424 610.055 70.3518 611.348 82.4689 613.646C85.8616 614.289 89.3593 615.018 92.9206 615.816C103.452 619.079 113.338 622.634 122.287 626.302C127.672 628.512 132.701 630.758 137.329 633.008C158.005 643.073 170.429 653.18 168.445 659.864L168.435 659.869Z" fill="#5D13D1"/>
<path d="M557.119 194V135.818H580.074C584.487 135.818 588.246 136.661 591.352 138.347C594.458 140.013 596.826 142.333 598.455 145.307C600.102 148.261 600.926 151.67 600.926 155.534C600.926 159.398 600.093 162.807 598.426 165.761C596.759 168.716 594.345 171.017 591.182 172.665C588.038 174.312 584.231 175.136 579.761 175.136H565.131V165.278H577.773C580.14 165.278 582.091 164.871 583.625 164.057C585.178 163.223 586.333 162.078 587.091 160.619C587.867 159.142 588.256 157.447 588.256 155.534C588.256 153.602 587.867 151.917 587.091 150.477C586.333 149.019 585.178 147.892 583.625 147.097C582.072 146.282 580.102 145.875 577.716 145.875H569.42V194H557.119ZM612.226 194H599.044L619.129 135.818H634.982L655.038 194H641.857L627.283 149.114H626.828L612.226 194ZM611.402 171.131H642.538V180.733H611.402V171.131ZM662.041 194V135.818H700.649V145.96H674.342V157.324H683.803C688.405 157.324 692.373 158.072 695.706 159.568C699.058 161.045 701.643 163.138 703.462 165.847C705.28 168.555 706.189 171.746 706.189 175.42C706.189 179.076 705.28 182.305 703.462 185.108C701.643 187.892 699.058 190.07 695.706 191.642C692.373 193.214 688.405 194 683.803 194H662.041ZM674.342 184.114H683.803C686 184.114 687.856 183.716 689.371 182.92C690.886 182.106 692.032 181.036 692.808 179.71C693.604 178.366 694.001 176.898 694.001 175.307C694.001 172.996 693.121 171.045 691.359 169.455C689.617 167.845 687.098 167.04 683.803 167.04H674.342V184.114ZM767.616 164.909C767.616 171.254 766.414 176.652 764.009 181.102C761.622 185.553 758.365 188.953 754.236 191.301C750.126 193.631 745.505 194.795 740.372 194.795C735.202 194.795 730.562 193.621 726.452 191.273C722.342 188.924 719.094 185.525 716.707 181.074C714.321 176.623 713.128 171.235 713.128 164.909C713.128 158.564 714.321 153.167 716.707 148.716C719.094 144.265 722.342 140.875 726.452 138.545C730.562 136.197 735.202 135.023 740.372 135.023C745.505 135.023 750.126 136.197 754.236 138.545C758.365 140.875 761.622 144.265 764.009 148.716C766.414 153.167 767.616 158.564 767.616 164.909ZM755.145 164.909C755.145 160.799 754.529 157.333 753.298 154.511C752.086 151.689 750.372 149.549 748.156 148.091C745.94 146.633 743.346 145.903 740.372 145.903C737.399 145.903 734.804 146.633 732.588 148.091C730.372 149.549 728.649 151.689 727.418 154.511C726.205 157.333 725.599 160.799 725.599 164.909C725.599 169.019 726.205 172.485 727.418 175.307C728.649 178.129 730.372 180.269 732.588 181.727C734.804 183.186 737.399 183.915 740.372 183.915C743.346 183.915 745.94 183.186 748.156 181.727C750.372 180.269 752.086 178.129 753.298 175.307C754.529 172.485 755.145 169.019 755.145 164.909ZM771.857 145.96V135.818H819.641V145.96H801.828V194H789.669V145.96H771.857ZM835.607 157.324H849.47C854.091 157.324 858.069 158.072 861.402 159.568C864.754 161.045 867.339 163.138 869.158 165.847C870.976 168.555 871.875 171.746 871.857 175.42C871.875 179.076 870.976 182.305 869.158 185.108C867.339 187.892 864.754 190.07 861.402 191.642C858.069 193.214 854.091 194 849.47 194H827.737V135.818H840.01V184.114H849.47C851.686 184.114 853.552 183.716 855.067 182.92C856.582 182.106 857.728 181.036 858.504 179.71C859.3 178.366 859.688 176.898 859.669 175.307C859.688 172.996 858.817 171.045 857.055 169.455C855.313 167.845 852.785 167.04 849.47 167.04H835.607V157.324ZM888.874 135.818V194H876.601V135.818H888.874Z" fill="black"/>
<path d="M552.119 189V130.818H575.074C579.487 130.818 583.246 131.661 586.352 133.347C589.458 135.013 591.826 137.333 593.455 140.307C595.102 143.261 595.926 146.67 595.926 150.534C595.926 154.398 595.093 157.807 593.426 160.761C591.759 163.716 589.345 166.017 586.182 167.665C583.038 169.312 579.231 170.136 574.761 170.136H560.131V160.278H572.773C575.14 160.278 577.091 159.871 578.625 159.057C580.178 158.223 581.333 157.078 582.091 155.619C582.867 154.142 583.256 152.447 583.256 150.534C583.256 148.602 582.867 146.917 582.091 145.477C581.333 144.019 580.178 142.892 578.625 142.097C577.072 141.282 575.102 140.875 572.716 140.875H564.42V189H552.119ZM607.226 189H594.044L614.129 130.818H629.982L650.038 189H636.857L622.283 144.114H621.828L607.226 189ZM606.402 166.131H637.538V175.733H606.402V166.131ZM657.041 189V130.818H695.649V140.96H669.342V152.324H678.803C683.405 152.324 687.373 153.072 690.706 154.568C694.058 156.045 696.643 158.138 698.462 160.847C700.28 163.555 701.189 166.746 701.189 170.42C701.189 174.076 700.28 177.305 698.462 180.108C696.643 182.892 694.058 185.07 690.706 186.642C687.373 188.214 683.405 189 678.803 189H657.041ZM669.342 179.114H678.803C681 179.114 682.856 178.716 684.371 177.92C685.886 177.106 687.032 176.036 687.808 174.71C688.604 173.366 689.001 171.898 689.001 170.307C689.001 167.996 688.121 166.045 686.359 164.455C684.617 162.845 682.098 162.04 678.803 162.04H669.342V179.114ZM762.616 159.909C762.616 166.254 761.414 171.652 759.009 176.102C756.622 180.553 753.365 183.953 749.236 186.301C745.126 188.631 740.505 189.795 735.372 189.795C730.202 189.795 725.562 188.621 721.452 186.273C717.342 183.924 714.094 180.525 711.707 176.074C709.321 171.623 708.128 166.235 708.128 159.909C708.128 153.564 709.321 148.167 711.707 143.716C714.094 139.265 717.342 135.875 721.452 133.545C725.562 131.197 730.202 130.023 735.372 130.023C740.505 130.023 745.126 131.197 749.236 133.545C753.365 135.875 756.622 139.265 759.009 143.716C761.414 148.167 762.616 153.564 762.616 159.909ZM750.145 159.909C750.145 155.799 749.529 152.333 748.298 149.511C747.086 146.689 745.372 144.549 743.156 143.091C740.94 141.633 738.346 140.903 735.372 140.903C732.399 140.903 729.804 141.633 727.588 143.091C725.372 144.549 723.649 146.689 722.418 149.511C721.205 152.333 720.599 155.799 720.599 159.909C720.599 164.019 721.205 167.485 722.418 170.307C723.649 173.129 725.372 175.269 727.588 176.727C729.804 178.186 732.399 178.915 735.372 178.915C738.346 178.915 740.94 178.186 743.156 176.727C745.372 175.269 747.086 173.129 748.298 170.307C749.529 167.485 750.145 164.019 750.145 159.909ZM766.857 140.96V130.818H814.641V140.96H796.828V189H784.669V140.96H766.857ZM830.607 152.324H844.47C849.091 152.324 853.069 153.072 856.402 154.568C859.754 156.045 862.339 158.138 864.158 160.847C865.976 163.555 866.875 166.746 866.857 170.42C866.875 174.076 865.976 177.305 864.158 180.108C862.339 182.892 859.754 185.07 856.402 186.642C853.069 188.214 849.091 189 844.47 189H822.737V130.818H835.01V179.114H844.47C846.686 179.114 848.552 178.716 850.067 177.92C851.582 177.106 852.728 176.036 853.504 174.71C854.3 173.366 854.688 171.898 854.669 170.307C854.688 167.996 853.817 166.045 852.055 164.455C850.313 162.845 847.785 162.04 844.47 162.04H830.607V152.324ZM883.874 130.818V189H871.601V130.818H883.874Z" fill="white"/>
</g>
<defs>
<clipPath id="clip0_5732_194">
<rect width="1440" height="750" fill="white"/>
</clipPath>
</defs>
</svg>
