<svg width="178" height="32" viewBox="0 0 178 32" fill="none" xmlns="http://www.w3.org/2000/svg">
<path d="M64.5 31.5C72.8001 31.5 79.5 24.5443 79.5 16C79.5 7.4557 72.8001 0.5 64.5 0.5C56.1999 0.5 49.5 7.4557 49.5 16C49.5 24.5443 56.1999 31.5 64.5 31.5Z" fill="#BBFF2C" stroke="black"/>
<path d="M70.0836 19.5139L70.8085 14.8442H66.2703V11.8141C66.2703 10.536 66.903 9.29145 68.937 9.29145H71V5.31593C71 5.31593 69.1285 5 67.337 5C63.5988 5 61.1552 7.23548 61.1552 11.2852V14.8442H57V19.5139H61.1552V30.8037C61.9891 30.933 62.8424 31 63.7127 31C64.583 31 65.4364 30.933 66.2703 30.8037V19.5139H70.0836Z" fill="white" stroke="black"/>
<path d="M15.5 31.5C23.8001 31.5 30.5 24.5443 30.5 16C30.5 7.4557 23.8001 0.5 15.5 0.5C7.19989 0.5 0.5 7.4557 0.5 16C0.5 24.5443 7.19989 31.5 15.5 31.5Z" fill="#BBFF2C" stroke="black"/>
<path d="M18.0222 7.75287C17.8822 7.99913 17.7286 8.30295 17.5953 8.59312C16.2033 8.41812 14.7949 8.41836 13.4007 8.5938C13.2658 8.30809 13.1203 8.02855 12.9669 7.75525C12.8636 7.57119 12.6558 7.47183 12.4477 7.50698C10.9038 7.76766 9.40296 8.23227 7.98536 8.89099C7.90248 8.9295 7.83174 8.98999 7.78083 9.06588C4.97809 13.2438 4.21058 17.3417 4.59082 21.3647C4.60415 21.5057 4.67668 21.6345 4.7904 21.719C6.44032 22.9449 8.29084 23.8803 10.2587 24.4784C10.4618 24.5401 10.6818 24.4669 10.8073 24.2957C11.2511 23.6904 11.6487 23.0503 11.9897 22.3785C12.0218 22.3152 12.0397 22.2467 12.0432 22.1774C14.3044 22.8043 16.6963 22.804 18.9574 22.1765C18.9604 22.2472 18.9783 22.3173 19.0111 22.3817C19.3514 23.0524 19.7461 23.6936 20.1953 24.2982C20.3212 24.4677 20.54 24.5398 20.7421 24.4784C22.7094 23.8804 24.5602 22.9483 26.2108 21.7186C26.3242 21.6341 26.3965 21.5057 26.4099 21.365C26.8536 16.697 25.6391 12.6398 23.202 9.05365C23.1385 8.96028 23.0476 8.89382 22.9457 8.86005C21.5417 8.22109 20.0625 7.76459 18.5403 7.50701C18.3331 7.47195 18.126 7.57019 18.0222 7.75287ZM12.0114 18.4113C11.303 18.4113 10.6248 17.7411 10.6248 16.7972C10.6248 15.8467 11.2894 15.1734 12.0114 15.1734C12.7401 15.1734 13.409 15.8439 13.4012 16.7866C13.3932 17.745 12.7324 18.4113 12.0114 18.4113ZM18.9894 18.4113C18.281 18.4113 17.6028 17.7411 17.6028 16.7972C17.6028 15.8467 18.2674 15.1734 18.9894 15.1734C19.7182 15.1734 20.3864 15.8437 20.3759 16.7852C20.3652 17.7472 19.7083 18.4113 18.9894 18.4113Z" fill="white" stroke="black" stroke-linejoin="round"/>
<path d="M113.5 31.5C121.8 31.5 128.5 24.5443 128.5 16C128.5 7.4557 121.8 0.5 113.5 0.5C105.2 0.5 98.5 7.4557 98.5 16C98.5 24.5443 105.2 31.5 113.5 31.5Z" fill="#BBFF2C" stroke="black"/>
<path d="M113.648 7C111.301 7 111.006 7.01052 110.084 7.05472C109.165 7.09892 108.536 7.24834 107.985 7.47143C107.417 7.70083 106.935 8.006 106.453 8.50269C105.972 8.99937 105.675 9.49816 105.456 10.0875C105.242 10.6557 105.096 11.306 105.053 12.2594C105.01 13.2128 105 13.518 105 15.9467C105 18.3754 105.01 18.6805 105.053 19.6339C105.096 20.5852 105.24 21.2355 105.456 21.8059C105.677 22.3931 105.972 22.8919 106.453 23.3906C106.933 23.8873 107.415 24.1946 107.985 24.4219C108.534 24.6429 109.162 24.7944 110.084 24.8386C111.006 24.8828 111.301 24.8933 113.648 24.8933C115.996 24.8933 116.291 24.8828 117.213 24.8386C118.132 24.7944 118.761 24.645 119.312 24.4219C119.88 24.1925 120.362 23.8873 120.844 23.3906C121.324 22.894 121.621 22.3952 121.841 21.8059C122.055 21.2376 122.201 20.5873 122.244 19.6339C122.287 18.6805 122.297 18.3754 122.297 15.9467C122.297 13.518 122.287 13.2128 122.244 12.2594C122.201 11.3081 122.057 10.6578 121.841 10.0875C121.619 9.50027 121.324 9.00148 120.844 8.50269C120.364 8.006 119.882 7.69873 119.312 7.47143C118.763 7.25045 118.134 7.09892 117.213 7.05472C116.291 7.01052 115.996 7 113.648 7Z" fill="white"/>
<path d="M113.648 8.61213C115.958 8.61213 116.23 8.62054 117.142 8.66474C117.984 8.70473 118.442 8.84995 118.747 8.97201C119.15 9.13407 119.438 9.32769 119.742 9.64128C120.045 9.95486 120.232 10.2516 120.389 10.6704C120.507 10.9861 120.647 11.4597 120.686 12.331C120.726 13.2738 120.736 13.5579 120.736 15.9446C120.736 18.3312 120.728 18.6153 120.686 19.5582C120.647 20.4295 120.507 20.903 120.389 21.2187C120.232 21.6354 120.045 21.9343 119.742 22.2478C119.438 22.5614 119.152 22.7551 118.747 22.9171C118.442 23.0392 117.984 23.1844 117.142 23.2244C116.23 23.2665 115.958 23.277 113.648 23.277C111.339 23.277 111.067 23.2686 110.155 23.2244C109.313 23.1844 108.855 23.0392 108.55 22.9171C108.147 22.7551 107.858 22.5614 107.555 22.2478C107.252 21.9343 107.065 21.6375 106.908 21.2187C106.79 20.903 106.65 20.4295 106.611 19.5582C106.571 18.6153 106.56 18.3312 106.56 15.9446C106.56 13.5579 106.569 13.2738 106.611 12.331C106.65 11.4597 106.79 10.9861 106.908 10.6704C107.065 10.2537 107.252 9.95486 107.555 9.64128C107.858 9.32769 108.145 9.13407 108.55 8.97201C108.855 8.84995 109.313 8.70473 110.155 8.66474C111.067 8.62265 111.341 8.61213 113.648 8.61213ZM113.648 7C111.301 7 111.006 7.01052 110.084 7.05472C109.165 7.09892 108.536 7.24834 107.985 7.47143C107.417 7.70083 106.935 8.006 106.453 8.50269C105.972 8.99937 105.675 9.49816 105.456 10.0875C105.242 10.6557 105.096 11.306 105.053 12.2594C105.01 13.2128 105 13.518 105 15.9467C105 18.3754 105.01 18.6805 105.053 19.6339C105.096 20.5852 105.24 21.2355 105.456 21.8059C105.677 22.3931 105.972 22.8919 106.453 23.3906C106.933 23.8873 107.415 24.1946 107.985 24.4219C108.534 24.6429 109.162 24.7944 110.084 24.8386C111.006 24.8828 111.301 24.8933 113.648 24.8933C115.996 24.8933 116.291 24.8828 117.213 24.8386C118.132 24.7944 118.761 24.645 119.312 24.4219C119.88 24.1925 120.362 23.8873 120.844 23.3906C121.324 22.894 121.621 22.3952 121.841 21.8059C122.055 21.2376 122.201 20.5873 122.244 19.6339C122.287 18.6805 122.297 18.3754 122.297 15.9467C122.297 13.518 122.287 13.2128 122.244 12.2594C122.201 11.3081 122.057 10.6578 121.841 10.0875C121.619 9.50027 121.324 9.00148 120.844 8.50269C120.364 8.006 119.882 7.69873 119.312 7.47143C118.763 7.25045 118.134 7.09892 117.213 7.05472C116.291 7.01052 115.996 7 113.648 7Z" fill="black"/>
<path d="M113.648 11.3521C111.197 11.3521 109.209 13.4082 109.209 15.9443C109.209 18.4803 111.197 20.5365 113.648 20.5365C116.1 20.5365 118.087 18.4803 118.087 15.9443C118.087 13.4082 116.1 11.3521 113.648 11.3521ZM113.648 18.9265C112.057 18.9265 110.765 17.5922 110.765 15.9443C110.765 14.2964 112.055 12.9621 113.648 12.9621C115.241 12.9621 116.531 14.2964 116.531 15.9443C116.531 17.5922 115.241 18.9265 113.648 18.9265Z" fill="black"/>
<path d="M118.265 12.2425C118.838 12.2425 119.302 11.762 119.302 11.1692C119.302 10.5764 118.838 10.0958 118.265 10.0958C117.691 10.0958 117.227 10.5764 117.227 11.1692C117.227 11.762 117.691 12.2425 118.265 12.2425Z" fill="black"/>
<path d="M162.5 31C170.508 31 177 24.2843 177 16C177 7.71573 170.508 1 162.5 1C154.492 1 148 7.71573 148 16C148 24.2843 154.492 31 162.5 31Z" fill="#BBFF2C" stroke="black"/>
<path d="M169.189 9.08523C169.023 8.61371 169.023 8.61373 169.023 8.61378L169.022 8.61398L169.02 8.61476L169.011 8.61788L168.976 8.6302L168.84 8.67825L168.323 8.86113C167.878 9.01898 167.24 9.24517 166.472 9.51857C164.935 10.0653 162.877 10.8011 160.79 11.5567C158.703 12.3121 156.585 13.0882 154.93 13.7153C154.102 14.0288 153.388 14.3061 152.85 14.5257C152.581 14.6353 152.353 14.732 152.175 14.8124C152.011 14.8865 151.855 14.9623 151.755 15.0303C151.54 15.1766 151.351 15.3331 151.265 15.5899C151.193 15.7958 151.189 15.9994 151.244 16.1863C151.298 16.3677 151.398 16.5037 151.491 16.5981C151.584 16.6922 151.681 16.7569 151.75 16.7974C151.786 16.8182 151.817 16.8341 151.841 16.8455C151.853 16.8513 151.864 16.856 151.872 16.8596L151.883 16.8644L151.888 16.8662L151.89 16.867L151.891 16.8673L151.891 16.8675C151.891 16.8676 151.892 16.8677 152.077 16.4034L151.892 16.8677L151.908 16.8742L151.925 16.8796L156.107 18.218L156.147 18.2307L156.188 18.2366L156.259 17.7418C156.188 18.2366 156.188 18.2366 156.188 18.2366L156.188 18.2367L156.188 18.2367L156.189 18.2368L156.19 18.237L156.194 18.2375L156.204 18.2388C156.212 18.2398 156.222 18.241 156.234 18.2422C156.258 18.2446 156.292 18.2475 156.331 18.2485C156.367 18.2496 156.42 18.2494 156.478 18.242C156.52 18.2366 156.628 18.2206 156.736 18.1525C157.217 17.854 159.606 16.3734 161.937 14.9443C162.673 14.4932 163.403 14.0475 164.065 13.6459C163.545 14.1322 162.976 14.6534 162.408 15.168C161.462 16.0257 160.521 16.8623 159.817 17.4847C159.465 17.7958 159.173 18.0533 158.968 18.2329L158.825 18.3583L158.49 18.1941L158.421 18.9137L158.031 22.9814L158.029 22.998C158.027 23.0124 158.026 23.0314 158.024 23.0542C158.022 23.0989 158.019 23.1616 158.023 23.233C158.028 23.348 158.05 23.598 158.206 23.8042C158.296 23.9233 158.432 24.0279 158.613 24.07C158.786 24.1101 158.953 24.0826 159.094 24.0318C159.364 23.9357 159.656 23.7161 159.986 23.3919L159.987 23.3915C160.703 22.6887 161.4 22.0795 161.867 21.6855C163.214 22.6032 164.57 23.5546 165.165 24.058C165.605 24.4301 166.013 24.5077 166.351 24.4966L166.352 24.4965C166.874 24.4778 167.204 24.1776 167.384 23.9242C167.474 23.7985 167.532 23.6767 167.569 23.5872C167.588 23.5418 167.602 23.5029 167.611 23.4736C167.616 23.4589 167.62 23.4465 167.623 23.4367L167.626 23.4239L167.627 23.4191L167.628 23.417L167.628 23.4161L167.628 23.4157C167.628 23.4155 167.628 23.4153 167.144 23.2898M167.144 23.2898L167.628 23.4153L167.629 23.4125L167.144 23.2898ZM167.144 23.2898C167.629 23.4125 167.629 23.4124 167.629 23.4123L167.629 23.4119L167.63 23.4103L167.631 23.4039L167.638 23.3787L167.662 23.2805L167.757 22.9065C167.838 22.5837 167.954 22.1208 168.093 21.5604C168.372 20.4398 168.745 18.9291 169.122 17.3691C169.498 15.8096 169.878 14.1988 170.17 12.8786C170.457 11.5817 170.671 10.5123 170.699 10.0719C170.701 10.039 170.704 10.0032 170.707 9.96576C170.715 9.87427 170.723 9.77327 170.723 9.68371C170.723 9.53501 170.713 9.31772 170.662 9.1645L170.612 9.17248L170.659 9.15613C170.61 9.01835 170.54 8.88099 170.422 8.76661C170.305 8.65198 170.177 8.59773 170.091 8.56596M170.091 8.56596C170.091 8.56611 170.092 8.56626 170.092 8.56641L169.917 9.03472L170.09 8.56551C170.09 8.56566 170.091 8.56581 170.091 8.56596Z" fill="white" stroke="black"/>
</svg>
